<?xml version="1.0" encoding="utf-8"?>
<!-- Generator: Adobe Illustrator 19.0.0, SVG Export Plug-In . SVG Version: 6.00 Build 0)  -->
<svg version="1.1" xmlns="http://www.w3.org/2000/svg" xmlns:xlink="http://www.w3.org/1999/xlink" x="0px" y="0px" width="1400px"
	 height="1400px" viewBox="0 0 1400 1400" enable-background="new 0 0 1400 1400" xml:space="preserve">
<g id="BG">
	<rect id="XMLID_950_" x="0" fill="#5591d7" width="1400" height="1400"/>
</g>
<g id="OBJ">
	<g id="XMLID_443_">
		<path id="XMLID_821_" fill-rule="evenodd" clip-rule="evenodd" fill="#3678c3" d="M 474.1 1177.1 c 28.6 -14.5 773 -447.9 773 -447.9 l 31.5 -75.7 l -190.7 -115.1 l -885.1 559 C 221.3 1232.5 381.4 1224.3 474.1 1177.1"/>
		<path id="XMLID_820_" fill-rule="evenodd" clip-rule="evenodd" fill="#203272" d="M 448.8 1154.3 c 28.6 -14.5 773 -447.9 773 -447.9 l 31.5 -75.7 L 177.5 1074.5 C 196 1209.7 356 1201.5 448.8 1154.3"/>
		<path id="XMLID_819_" fill="#c3c3c3" d="M 1238.3 602.2 c 0 0 -70.4 -40.5 -99.3 -57.1 c -28.9 -16.6 -53.2 -6 -53.2 -6 L 340.4 969.6 l 156.7 90.5 l -0.3 11.1 L 1244 639.7 C 1270.5 624.4 1238.3 602.2 1238.3 602.2"/>
		<path id="XMLID_818_" fill-rule="evenodd" clip-rule="evenodd" fill="#ae403b" d="M 1235.5 606.6 c -33.5 -18.6 -65.9 -38 -99.2 -57 c -10.5 -6 -22.3 -9.3 -34.4 -8.5 c -4.1 0.2 -9.9 1.1 -13.8 2.7 L 350.9 969.6 l 146.1 90.5 l -0.1 4.9 l 744.5 -429.8 c 3.8 -2.2 8.2 -5.6 7.8 -10.4 C 1248.7 618.2 1240.7 610.3 1235.5 606.6"/>
		<path id="XMLID_817_" fill="#c3c3c3" d="M 275.4 994.6 c 0 0 -80.5 33.6 -91.2 49.8 c -10.6 16.2 -18.1 57.8 47.4 85.5 c 65.5 27.6 146.6 -1.9 168.7 -14.5 l 96.8 -55.3 V 1049 l -168 -85.9 L 275.4 994.6 z"/>
		<path id="XMLID_816_" fill="#c3c3c3" d="M 275.4 983.6 c 0 0 -78.7 41.7 -89.3 57.8 c -10.6 16.2 -20 49.8 45.5 77.4 c 65.5 27.6 140.4 2.3 162.5 -10.4 l 103 -59.5 l -168 -97 L 275.4 983.6 z"/>
		<path id="XMLID_815_" fill="#ae403b" d="M 218.2 1112.6 c 4.1 2.1 8.5 4.2 13.3 6.2 c 65.5 27.6 140.4 2.3 162.5 -10.4 l 103 -59.5 l -156.7 -90.5 l -53.7 31.6 c 0 0 -78.7 41.7 -89.3 57.8 C 188.3 1061.7 180.2 1088 218.2 1112.6"/>
		<polygon id="XMLID_814_" fill="#203272" points="1067.7,514.2 1067.7,616.2 1119.9,584.1 1101.9,494.3"/>
		<polygon id="XMLID_813_" fill="#872f2a" points="1067.7,531.3 1067.7,553.8 1107.8,529.5 1104.9,509.3"/>
		<polygon id="XMLID_812_" fill="#293e7f" points="1032.9,596.2 1067.7,616.2 1067.7,514.2 1032.9,494.2"/>
		<polygon id="XMLID_811_" fill="#ae403b" points="1032.9,534.8 1067.7,553.8 1067.7,531.3 1032.9,511.2"/>
		<polygon id="XMLID_810_" fill="#182b53" points="1032.9,494.2 1067.7,514.2 1101.9,494.3 1067.2,474.2"/>
		<polygon id="XMLID_809_" fill="#203272" points="1122.7,545.9 1122.7,647.9 1174.9,615.8 1156.9,526"/>
		<polygon id="XMLID_808_" fill="#872f2a" points="1122.7,563 1122.7,585.6 1162.8,561.2 1160,541"/>
		<polygon id="XMLID_807_" fill="#293e7f" points="1087.9,627.9 1122.7,647.9 1122.7,545.9 1087.9,525.9"/>
		<polygon id="XMLID_806_" fill="#ae403b" points="1087.9,566.6 1122.7,585.6 1122.7,563 1087.9,543"/>
		<polygon id="XMLID_805_" fill="#182b53" points="1087.9,525.9 1122.7,545.9 1156.9,526 1122.2,506"/>
		<polygon id="XMLID_804_" fill="#c3c3c3" points="1005.7,607.6 1129.5,679.1 1129.5,586 1005.7,514.5"/>
		<polygon id="XMLID_803_" fill="#dfd9d9" points="933.1,650.6 1056.9,722 1056.9,628.9 933.1,557.5"/>
		<polygon id="XMLID_802_" fill="#c3c3c3" points="1056.9,722.7 1129.5,680.8 1129.5,586 1056.9,628.9"/>
		<polygon id="XMLID_801_" fill="#ffffff" points="933.1,557.5 1056.9,628.9 1129.5,586 1005.7,514.5"/>
		<polygon id="XMLID_800_" fill="#dfd9d9" points="1005.7,525.8 1113.6,588.8 1118.2,586.1 1005.7,520"/>
		<polygon id="XMLID_799_" fill="#c3c3c3" points="949.4,559.9 1005.7,525.8 1005.7,520 943.8,556.6"/>
		<polygon id="XMLID_798_" fill="#c3c3c3" points="889.7,514.2 933.1,557.5 933.1,650.6 1056.9,722 1056.9,628.9 1107.3,644.7 1107.3,611.5 889.7,485.9"/>
		<polygon id="XMLID_797_" fill="#dfd9d9" points="853.5,535.8 896.8,579.1 896.8,672.2 1020.6,743.7 1020.6,650.6 1071,666.3 1071,633.1 853.5,507.5"/>
		<polygon id="XMLID_796_" fill="#c3c3c3" points="1020.6,743.7 1056.9,722.7 1056.9,661.9 1020.6,690.7"/>
		<polygon id="XMLID_795_" fill="#ffffff" points="853.5,507.5 1071,633.1 1107.3,611.5 889.7,485.9"/>
		<polygon id="XMLID_794_" fill="#203272" points="902.8,600.2 907.5,603.1 907.5,595.3 902.8,592.5"/>
		<polygon id="XMLID_793_" fill="#203272" points="910.5,605 915.2,607.8 915.2,600.1 910.5,597.2"/>
		<polygon id="XMLID_792_" fill="#203272" points="902.6,613.7 907.3,616.6 907.3,608.8 902.6,606"/>
		<polygon id="XMLID_791_" fill="#203272" points="910.3,618.5 915,621.3 915,613.6 910.3,610.7"/>
		<polygon id="XMLID_790_" fill="#203272" points="902.8,627.9 907.5,630.7 907.5,623 902.8,620.1"/>
		<polygon id="XMLID_789_" fill="#203272" points="910.5,632.6 915.2,635.4 915.2,627.7 910.5,624.9"/>
		<polygon id="XMLID_788_" fill="#203272" points="919.4,609.9 924.1,612.7 924.1,605 919.4,602.1"/>
		<polygon id="XMLID_787_" fill="#203272" points="927.1,614.6 931.8,617.4 931.8,609.7 927.1,606.8"/>
		<polygon id="XMLID_786_" fill="#203272" points="919.1,623.4 923.8,626.2 923.8,618.5 919.1,615.6"/>
		<polygon id="XMLID_785_" fill="#203272" points="926.8,628.1 931.5,630.9 931.5,623.2 926.8,620.3"/>
		<polygon id="XMLID_784_" fill="#203272" points="919.4,637.5 924.1,640.3 924.1,632.6 919.4,629.7"/>
		<polygon id="XMLID_783_" fill="#203272" points="927.1,642.2 931.8,645 931.8,637.3 927.1,634.5"/>
		<polygon id="XMLID_782_" fill="#203272" points="942.5,624 947.2,626.9 947.2,619.1 942.5,616.3"/>
		<polygon id="XMLID_781_" fill="#203272" points="950.2,628.8 954.9,631.6 954.9,623.8 950.2,621"/>
		<polygon id="XMLID_780_" fill="#203272" points="942.3,637.5 947,640.4 947,632.6 942.3,629.8"/>
		<polygon id="XMLID_779_" fill="#203272" points="950,642.2 954.7,645.1 954.7,637.3 950,634.5"/>
		<polygon id="XMLID_778_" fill="#203272" points="942.5,651.7 947.2,654.5 947.2,646.8 942.5,643.9"/>
		<polygon id="XMLID_777_" fill="#203272" points="950.2,656.4 954.9,659.2 954.9,651.5 950.2,648.6"/>
		<polygon id="XMLID_776_" fill="#203272" points="959.1,633.7 963.8,636.5 963.8,628.7 959.1,625.9"/>
		<polygon id="XMLID_775_" fill="#203272" points="966.8,638.4 971.5,641.2 971.5,633.5 966.8,630.6"/>
		<polygon id="XMLID_774_" fill="#203272" points="958.8,647.1 963.5,650 963.5,642.2 958.8,639.4"/>
		<polygon id="XMLID_773_" fill="#203272" points="966.5,651.9 971.2,654.7 971.2,647 966.5,644.1"/>
		<polygon id="XMLID_772_" fill="#203272" points="959.1,661.3 963.8,664.1 963.8,656.4 959.1,653.5"/>
		<polygon id="XMLID_771_" fill="#203272" points="966.8,666 971.5,668.8 971.5,661.1 966.8,658.3"/>
		<polygon id="XMLID_770_" fill="#203272" points="983.3,648 988.1,650.8 988.1,643.1 983.3,640.2"/>
		<polygon id="XMLID_769_" fill="#203272" points="991.1,652.7 995.8,655.6 995.8,647.8 991.1,645"/>
		<polygon id="XMLID_768_" fill="#203272" points="983.1,661.5 987.8,664.3 987.8,656.6 983.1,653.7"/>
		<polygon id="XMLID_767_" fill="#203272" points="990.8,666.2 995.5,669 995.5,661.3 990.8,658.5"/>
		<polygon id="XMLID_766_" fill="#203272" points="983.3,675.6 988.1,678.5 988.1,670.7 983.3,667.9"/>
		<polygon id="XMLID_765_" fill="#203272" points="991.1,680.3 995.8,683.2 995.8,675.4 991.1,672.6"/>
		<polygon id="XMLID_764_" fill="#203272" points="999.9,657.6 1004.6,660.5 1004.6,652.7 999.9,649.9"/>
		<polygon id="XMLID_763_" fill="#203272" points="1007.6,662.3 1012.3,665.2 1012.3,657.4 1007.6,654.6"/>
		<polygon id="XMLID_762_" fill="#203272" points="999.6,671.1 1004.4,673.9 1004.4,666.2 999.6,663.4"/>
		<polygon id="XMLID_761_" fill="#203272" points="1007.4,675.8 1012.1,678.7 1012.1,670.9 1007.4,668.1"/>
		<polygon id="XMLID_760_" fill="#203272" points="999.9,685.2 1004.6,688.1 1004.6,680.3 999.9,677.5"/>
		<polygon id="XMLID_759_" fill="#203272" points="1007.6,690 1012.3,692.8 1012.3,685.1 1007.6,682.2"/>
		<polygon id="XMLID_758_" fill="#203272" points="1071.7,683.2 1067,686 1067,678.2 1071.7,675.5"/>
		<polygon id="XMLID_757_" fill="#203272" points="1064,687.8 1059.2,690.6 1059.2,682.9 1064,680.1"/>
		<polygon id="XMLID_756_" fill="#203272" points="1071.4,697.3 1066.7,700.1 1066.7,692.4 1071.4,689.6"/>
		<polygon id="XMLID_755_" fill="#203272" points="1063.7,702 1059,704.7 1059,697 1063.7,694.2"/>
		<polygon id="XMLID_754_" fill="#203272" points="1055.1,692.6 1050.4,695.4 1050.4,687.6 1055.1,684.9"/>
		<polygon id="XMLID_753_" fill="#203272" points="1047.4,697.2 1042.7,700 1042.7,692.2 1047.4,689.5"/>
		<polygon id="XMLID_752_" fill="#203272" points="1054.9,706.7 1050.1,709.5 1050.1,701.8 1054.9,699"/>
		<polygon id="XMLID_751_" fill="#203272" points="1047.1,711.3 1042.4,714.1 1042.4,706.4 1047.1,703.6"/>
		<polygon id="XMLID_750_" fill="#203272" points="1108.3,661.8 1103.6,664.6 1103.6,656.8 1108.3,654.1"/>
		<polygon id="XMLID_749_" fill="#203272" points="1100.6,666.4 1095.9,669.2 1095.9,661.5 1100.6,658.7"/>
		<polygon id="XMLID_748_" fill="#203272" points="1108.1,675.9 1103.4,678.7 1103.4,671 1108.1,668.2"/>
		<polygon id="XMLID_747_" fill="#203272" points="1100.4,680.6 1095.7,683.3 1095.7,675.6 1100.4,672.8"/>
		<polygon id="XMLID_746_" fill="#203272" points="1091.8,671.2 1087.1,674 1087.1,666.2 1091.8,663.5"/>
		<polygon id="XMLID_745_" fill="#203272" points="1084.1,675.8 1079.4,678.6 1079.4,670.8 1084.1,668.1"/>
		<polygon id="XMLID_744_" fill="#203272" points="1091.5,685.3 1086.8,688.1 1086.8,680.4 1091.5,677.6"/>
		<polygon id="XMLID_743_" fill="#203272" points="1083.8,689.9 1079.1,692.7 1079.1,685 1083.8,682.2"/>
		<path id="XMLID_742_" fill-rule="evenodd" clip-rule="evenodd" fill="#dfd9d9" d="M 1004.1 547.2 c 0.4 5.3 8.4 6.2 8.4 6.2 s 4.8 0.9 9.4 -1.1 c 4.6 -2 4.4 -5.1 4.4 -5.1 V 539 h -22.2 V 547.2 z"/>
		<path id="XMLID_741_" fill="#ffffff" d="M 1023.1 534.4 c -4.3 -2.5 -11.4 -2.5 -15.7 0 c -4.3 2.5 -4.3 6.6 0 9.1 c 4.3 2.5 11.4 2.5 15.7 0 C 1027.4 541 1027.4 536.9 1023.1 534.4"/>
		<path id="XMLID_740_" fill-rule="evenodd" clip-rule="evenodd" fill="#dfd9d9" d="M 1006.8 538.2 c 0.3 4 6.3 4.7 6.3 4.7 s 3.6 0.7 7.1 -0.8 c 3.5 -1.5 3.3 -3.9 3.3 -3.9 v -6.1 h -16.7 V 538.2 z"/>
		<path id="XMLID_739_" fill="#ffffff" d="M 1021.1 528.7 c -3.3 -1.9 -8.6 -1.9 -11.8 0 c -3.3 1.9 -3.3 4.9 0 6.8 c 3.3 1.9 8.6 1.9 11.8 0 C 1024.4 533.6 1024.4 530.6 1021.1 528.7"/>
		<path id="XMLID_738_" fill-rule="evenodd" clip-rule="evenodd" fill="#dfd9d9" d="M 1025.4 559.4 c 0.4 5.3 8.4 6.2 8.4 6.2 s 4.8 0.9 9.4 -1.1 c 4.6 -2 4.4 -5.1 4.4 -5.1 v -8.2 h -22.2 V 559.4 z"/>
		<path id="XMLID_737_" fill="#ffffff" d="M 1044.4 546.7 c -4.3 -2.5 -11.4 -2.5 -15.7 0 c -4.3 2.5 -4.3 6.6 0 9.1 c 4.3 2.5 11.4 2.5 15.7 0 C 1048.7 553.3 1048.7 549.2 1044.4 546.7"/>
		<path id="XMLID_736_" fill-rule="evenodd" clip-rule="evenodd" fill="#dfd9d9" d="M 1028.1 550.5 c 0.3 4 6.3 4.7 6.3 4.7 s 3.6 0.7 7.1 -0.8 c 3.5 -1.5 3.3 -3.9 3.3 -3.9 v -6.1 h -16.7 V 550.5 z"/>
		<path id="XMLID_735_" fill="#ffffff" d="M 1042.4 541 c -3.3 -1.9 -8.6 -1.9 -11.8 0 c -3.3 1.9 -3.3 4.9 0 6.8 c 3.3 1.9 8.6 1.9 11.8 0 C 1045.7 545.9 1045.7 542.9 1042.4 541"/>
		<path id="XMLID_734_" fill-rule="evenodd" clip-rule="evenodd" fill="#dfd9d9" d="M 1046.7 571.7 c 0.4 5.3 8.4 6.2 8.4 6.2 s 4.8 0.9 9.4 -1.1 c 4.6 -2 4.4 -5.1 4.4 -5.1 v -8.2 h -22.2 V 571.7 z"/>
		<path id="XMLID_733_" fill="#ffffff" d="M 1065.6 559 c -4.3 -2.5 -11.4 -2.5 -15.7 0 c -4.3 2.5 -4.3 6.6 0 9.1 c 4.3 2.5 11.4 2.5 15.7 0 C 1070 565.6 1070 561.5 1065.6 559"/>
		<path id="XMLID_732_" fill-rule="evenodd" clip-rule="evenodd" fill="#dfd9d9" d="M 1049.4 562.8 c 0.3 4 6.3 4.7 6.3 4.7 s 3.6 0.7 7.1 -0.8 c 3.5 -1.5 3.3 -3.9 3.3 -3.9 v -6.1 h -16.7 V 562.8 z"/>
		<path id="XMLID_731_" fill="#ffffff" d="M 1063.7 553.3 c -3.3 -1.9 -8.6 -1.9 -11.8 0 c -3.3 1.9 -3.3 4.9 0 6.8 c 3.3 1.9 8.6 1.9 11.8 0 C 1067 558.2 1067 555.1 1063.7 553.3"/>
		<path id="XMLID_730_" fill-rule="evenodd" clip-rule="evenodd" fill="#dfd9d9" d="M 1067.9 584 c 0.4 5.3 8.4 6.2 8.4 6.2 s 4.8 0.9 9.4 -1.1 c 4.6 -2 4.4 -5.1 4.4 -5.1 v -8.2 h -22.2 V 584 z"/>
		<path id="XMLID_729_" fill="#ffffff" d="M 1086.9 571.3 c -4.3 -2.5 -11.4 -2.5 -15.7 0 c -4.3 2.5 -4.3 6.6 0 9.1 c 4.3 2.5 11.4 2.5 15.7 0 C 1091.3 577.9 1091.3 573.8 1086.9 571.3"/>
		<path id="XMLID_728_" fill-rule="evenodd" clip-rule="evenodd" fill="#dfd9d9" d="M 1070.7 575.1 c 0.3 4 6.3 4.7 6.3 4.7 s 3.6 0.7 7.1 -0.8 c 3.5 -1.5 3.3 -3.9 3.3 -3.9 V 569 h -16.7 V 575.1 z"/>
		<path id="XMLID_727_" fill="#ffffff" d="M 1085 565.6 c -3.3 -1.9 -8.6 -1.9 -11.8 0 c -3.3 1.9 -3.3 4.9 0 6.8 c 3.3 1.9 8.6 1.9 11.8 0 C 1088.3 570.5 1088.3 567.4 1085 565.6"/>
		<polygon id="XMLID_726_" fill="#dfd9d9" points="317.4,1001.4 332.9,1010.4 332.9,1008.3 317.4,999.3"/>
		<polygon id="XMLID_725_" fill="#dfd9d9" points="331.2,993.2 346.8,1002.1 346.8,1000.1 331.2,991.1"/>
		<polygon id="XMLID_724_" fill="#ffffff" points="317.4,999.3 332.9,1008.3 346.8,1000.1 331.2,991.1"/>
		<polygon id="XMLID_723_" fill="#c3c3c3" points="332.9,1010.4 346.8,1002.1 346.8,1000.1 332.9,1008.3"/>
		<polygon id="XMLID_722_" fill="#c3c3c3" points="332.1,993.2 343.3,999.6 343.3,937 332.1,930.5"/>
		<polygon id="XMLID_721_" fill="#dfd9d9" points="321.2,999.6 332.4,1006.1 332.4,943.5 321.2,937"/>
		<polygon id="XMLID_720_" fill="#c3c3c3" points="332.4,1006.1 343.3,999.6 343.3,937 332.4,943.5"/>
		<polygon id="XMLID_719_" fill="#ffffff" points="321.2,937 332.4,943.5 343.3,937 332.1,930.5"/>
		<polygon id="XMLID_718_" fill="#dfd9d9" points="318.4,937.7 333.4,946.3 333.4,944.3 318.4,935.7"/>
		<polygon id="XMLID_717_" fill="#dfd9d9" points="331.8,929.7 346.8,938.4 346.8,936.4 331.8,927.7"/>
		<polygon id="XMLID_716_" fill="#ffffff" points="318.4,935.7 333.4,944.3 346.8,936.4 331.8,927.7"/>
		<polygon id="XMLID_715_" fill="#c3c3c3" points="333.4,946.3 346.8,938.4 346.8,936.4 333.4,944.3"/>
		<polygon id="XMLID_714_" fill="#c3c3c3" points="332.4,933.1 338.1,936.4 338.1,904.7 332.4,901.4"/>
		<polygon id="XMLID_713_" fill="#dfd9d9" points="326.9,936.4 332.6,939.6 332.6,908 326.9,904.7"/>
		<polygon id="XMLID_712_" fill="#c3c3c3" points="332.6,939.6 338.1,936.4 338.1,904.7 332.6,908"/>
		<polygon id="XMLID_711_" fill="#ffffff" points="326.9,904.7 332.6,908 338.1,904.7 332.4,901.4"/>
		<polygon id="XMLID_710_" fill="#ffffff" points="271.8,1041.3 284.6,1048.7 297.1,1041.4 284.2,1033.9"/>
		<polygon id="XMLID_709_" fill="#dfd9d9" points="268.6,1042.1 285.8,1052 285.8,1049.7 268.6,1039.8"/>
		<polygon id="XMLID_708_" fill="#dfd9d9" points="284,1033 301.1,1042.9 301.1,1040.6 284,1030.7"/>
		<polygon id="XMLID_707_" fill="#ffffff" points="268.6,1039.8 285.8,1049.7 301.1,1040.6 284,1030.7"/>
		<polygon id="XMLID_706_" fill="#c3c3c3" points="285.8,1052 301.1,1042.9 301.1,1040.6 285.8,1049.7"/>
		<polygon id="XMLID_705_" fill="#ffffff" points="294.8,1068.3 317.6,1081.4 339.7,1068.3 316.9,1055.2"/>
		<polygon id="XMLID_704_" fill="#dfd9d9" points="289.2,1069.6 319.7,1087.3 319.7,1083.2 289.2,1065.6"/>
		<polygon id="XMLID_703_" fill="#dfd9d9" points="316.4,1053.5 346.9,1071.1 346.9,1067 316.4,1049.4"/>
		<polygon id="XMLID_702_" fill="#ffffff" points="289.2,1065.6 319.7,1083.2 346.9,1067 316.4,1049.4"/>
		<polygon id="XMLID_701_" fill="#c3c3c3" points="319.7,1087.3 346.9,1071.1 346.9,1067 319.7,1083.2"/>
		<polygon id="XMLID_700_" fill="#ffffff" points="362.9,1058.1 378.8,1067.3 394.3,1058.1 378.4,1048.9"/>
		<polygon id="XMLID_699_" fill="#dfd9d9" points="359,1059 380.3,1071.4 380.3,1068.5 359,1056.2"/>
		<polygon id="XMLID_698_" fill="#dfd9d9" points="378,1047.7 399.3,1060.1 399.3,1057.2 378,1044.9"/>
		<polygon id="XMLID_697_" fill="#ffffff" points="359,1056.2 380.3,1068.5 399.3,1057.2 378,1044.9"/>
		<polygon id="XMLID_696_" fill="#c3c3c3" points="380.3,1071.4 399.3,1060.1 399.3,1057.2 380.3,1068.5"/>
		<polygon id="XMLID_695_" fill-rule="evenodd" clip-rule="evenodd" fill="#6080bc" points="844.3,689.2 832.4,696.1 820.5,702.9 808.7,696.1 796.8,689.2 808.7,682.4 820.5,675.5 820.5,675.5 829.1,670.6 841,663.7 849.6,658.7 861.4,651.9 873.3,658.7 885.2,665.6 873.3,672.5 864.8,677.4 852.9,684.3"/>
		<polygon id="XMLID_694_" fill-rule="evenodd" clip-rule="evenodd" fill="#5775aa" points="796.8,689.2 820.5,702.9 820.5,732.5 796.8,718.8"/>
		<polygon id="XMLID_693_" fill-rule="evenodd" clip-rule="evenodd" fill="#465e89" points="885.2,665.6 820.5,702.9 820.5,732.5 885.2,695.2"/>
		<polygon id="XMLID_692_" fill-rule="evenodd" clip-rule="evenodd" fill="#e6344c" points="868.1,702.9 856.2,709.8 844.3,716.7 832.4,709.8 820.5,702.9 832.4,696.1 844.3,689.2 852.9,684.3 864.8,677.4 864.8,677.4 873.3,672.5 885.2,665.6 897.1,672.5 909,679.3 897.1,686.2 888.5,691.1 876.6,698"/>
		<polygon id="XMLID_691_" fill-rule="evenodd" clip-rule="evenodd" fill="#c5181f" points="820.5,702.9 844.3,716.7 844.3,746.3 820.5,732.5"/>
		<polygon id="XMLID_690_" fill-rule="evenodd" clip-rule="evenodd" fill="#e50013" points="909,679.3 844.3,716.7 844.3,746.3 909,708.9"/>
		<polygon id="XMLID_689_" fill-rule="evenodd" clip-rule="evenodd" fill="#b2b54f" points="891.8,716.7 879.9,723.5 868.1,730.4 856.2,723.5 844.3,716.7 856.2,709.8 868.1,702.9 868.1,702.9 876.6,698 888.5,691.1 897.1,686.2 909,679.3 920.9,686.2 932.7,693 920.9,699.9 912.3,704.8 900.4,711.7"/>
		<polygon id="XMLID_688_" fill-rule="evenodd" clip-rule="evenodd" fill="#a7aa4e" points="844.3,716.7 868.1,730.4 868.1,760 844.3,746.3"/>
		<polygon id="XMLID_687_" fill-rule="evenodd" clip-rule="evenodd" fill="#465e89" points="932.7,693 868.1,730.4 868.1,760 932.7,722.6"/>
		<polygon id="XMLID_686_" fill-rule="evenodd" clip-rule="evenodd" fill="#97acdb" points="915.6,730.4 903.7,737.2 891.8,744.1 879.9,737.2 868.1,730.4 879.9,723.5 891.8,716.7 900.4,711.7 912.3,704.8 912.3,704.8 920.9,699.9 932.7,693 944.6,699.9 956.5,706.8 944.6,713.6 936,718.6 924.2,725.4"/>
		<polygon id="XMLID_685_" fill-rule="evenodd" clip-rule="evenodd" fill="#8ba1ce" points="868.1,730.4 891.8,744.1 891.8,773.7 868.1,760"/>
		<polygon id="XMLID_684_" fill-rule="evenodd" clip-rule="evenodd" fill="#465e89" points="956.5,706.8 891.8,744.1 891.8,773.7 956.5,736.4"/>
		<polygon id="XMLID_683_" fill-rule="evenodd" clip-rule="evenodd" fill="#e7c680" points="939.4,744.1 927.5,751 915.6,757.8 903.7,751 891.8,744.1 903.7,737.2 915.6,730.4 915.6,730.4 924.2,725.4 936,718.6 944.6,713.6 956.5,706.8 968.4,713.6 980.3,720.5 968.4,727.3 959.8,732.3 947.9,739.1"/>
		<polygon id="XMLID_682_" fill-rule="evenodd" clip-rule="evenodd" fill="#d3b473" points="891.8,744.1 915.6,757.8 915.6,787.4 891.8,773.7"/>
		<polygon id="XMLID_681_" fill-rule="evenodd" clip-rule="evenodd" fill="#465e89" points="980.3,720.5 915.6,757.8 915.6,787.4 980.3,750.1"/>
		<polygon id="XMLID_680_" fill-rule="evenodd" clip-rule="evenodd" fill="#ea7000" points="963.1,757.8 951.2,764.7 939.4,771.5 927.5,764.7 915.6,757.8 927.5,751 939.4,744.1 947.9,739.1 959.8,732.3 959.8,732.3 968.4,727.3 980.3,720.5 992.1,727.3 1004,734.2 992.1,741.1 983.6,746 971.7,752.9"/>
		<polygon id="XMLID_679_" fill-rule="evenodd" clip-rule="evenodd" fill="#e46607" points="915.6,757.8 939.4,771.5 939.4,801.1 915.6,787.4"/>
		<polygon id="XMLID_678_" fill-rule="evenodd" clip-rule="evenodd" fill="#a7aa4e" points="1004,734.2 939.4,771.5 939.4,801.1 1004,763.8"/>
		<polygon id="XMLID_677_" fill-rule="evenodd" clip-rule="evenodd" fill="#97acdb" points="844.3,659.6 832.4,666.5 820.5,673.3 808.7,666.5 796.8,659.6 808.7,652.8 820.5,645.9 820.5,645.9 829.1,640.9 841,634.1 849.6,629.1 861.4,622.3 873.3,629.1 885.2,636 873.3,642.9 864.8,647.8 852.9,654.7"/>
		<polygon id="XMLID_676_" fill-rule="evenodd" clip-rule="evenodd" fill="#5775aa" points="796.8,659.6 820.5,673.3 820.5,702.9 796.8,689.2"/>
		<polygon id="XMLID_675_" fill-rule="evenodd" clip-rule="evenodd" fill="#465e89" points="885.2,636 820.5,673.3 820.5,702.9 885.2,665.6"/>
		<polygon id="XMLID_674_" fill-rule="evenodd" clip-rule="evenodd" fill="#e6344c" points="868.1,673.3 856.2,680.2 844.3,687.1 832.4,680.2 820.5,673.3 832.4,666.5 844.3,659.6 852.9,654.7 864.8,647.8 864.8,647.8 873.3,642.9 885.2,636 897.1,642.9 909,649.7 897.1,656.6 888.5,661.5 876.6,668.4"/>
		<polygon id="XMLID_673_" fill-rule="evenodd" clip-rule="evenodd" fill="#c5181f" points="820.5,673.3 844.3,687.1 844.3,716.7 820.5,702.9"/>
		<polygon id="XMLID_672_" fill-rule="evenodd" clip-rule="evenodd" fill="#e50013" points="909,649.7 844.3,687.1 844.3,716.7 909,679.3"/>
		<polygon id="XMLID_671_" fill-rule="evenodd" clip-rule="evenodd" fill="#6080bc" points="891.8,687.1 879.9,693.9 868.1,700.8 856.2,693.9 844.3,687.1 856.2,680.2 868.1,673.3 868.1,673.3 876.6,668.4 888.5,661.5 897.1,656.6 909,649.7 920.9,656.6 932.7,663.4 920.9,670.3 912.3,675.2 900.4,682.1"/>
		<polygon id="XMLID_670_" fill-rule="evenodd" clip-rule="evenodd" fill="#a7aa4e" points="844.3,687.1 868.1,700.8 868.1,730.4 844.3,716.7"/>
		<polygon id="XMLID_669_" fill-rule="evenodd" clip-rule="evenodd" fill="#465e89" points="932.7,663.4 868.1,700.8 868.1,730.4 932.7,693"/>
		<polygon id="XMLID_668_" fill-rule="evenodd" clip-rule="evenodd" fill="#97acdb" points="915.6,700.8 903.7,707.6 891.8,714.5 879.9,707.6 868.1,700.8 879.9,693.9 891.8,687.1 900.4,682.1 912.3,675.2 912.3,675.2 920.9,670.3 932.7,663.4 944.6,670.3 956.5,677.2 944.6,684 936,689 924.2,695.8"/>
		<polygon id="XMLID_667_" fill-rule="evenodd" clip-rule="evenodd" fill="#8ba1ce" points="868.1,700.8 891.8,714.5 891.8,744.1 868.1,730.4"/>
		<polygon id="XMLID_666_" fill-rule="evenodd" clip-rule="evenodd" fill="#465e89" points="956.5,677.2 891.8,714.5 891.8,744.1 956.5,706.8"/>
		<polygon id="XMLID_665_" fill-rule="evenodd" clip-rule="evenodd" fill="#e7c680" points="939.4,714.5 927.5,721.4 915.6,728.2 903.7,721.4 891.8,714.5 903.7,707.6 915.6,700.8 915.6,700.8 924.2,695.8 936,689 944.6,684 956.5,677.2 968.4,684 980.3,690.9 968.4,697.7 959.8,702.7 947.9,709.5"/>
		<polygon id="XMLID_664_" fill-rule="evenodd" clip-rule="evenodd" fill="#d3b473" points="891.8,714.5 915.6,728.2 915.6,757.8 891.8,744.1"/>
		<polygon id="XMLID_663_" fill-rule="evenodd" clip-rule="evenodd" fill="#465e89" points="980.3,690.9 915.6,728.2 915.6,757.8 980.3,720.5"/>
		<polygon id="XMLID_662_" fill-rule="evenodd" clip-rule="evenodd" fill="#ea7000" points="963.1,728.2 951.2,735.1 939.4,741.9 927.5,735.1 915.6,728.2 927.5,721.4 939.4,714.5 947.9,709.5 959.8,702.7 959.8,702.7 968.4,697.7 980.3,690.9 992.1,697.7 1004,704.6 992.1,711.5 983.6,716.4 971.7,723.3"/>
		<polygon id="XMLID_661_" fill-rule="evenodd" clip-rule="evenodd" fill="#e46607" points="915.6,728.2 939.4,741.9 939.4,771.5 915.6,757.8"/>
		<polygon id="XMLID_660_" fill-rule="evenodd" clip-rule="evenodd" fill="#ac5219" points="1004,704.6 939.4,741.9 939.4,771.5 1004,734.2"/>
		<polygon id="XMLID_659_" fill-rule="evenodd" clip-rule="evenodd" fill="#6080bc" points="779.6,726.6 767.8,733.4 755.9,740.3 744,733.4 732.1,726.6 744,719.7 755.9,712.8 755.9,712.8 764.4,707.9 776.3,701 784.9,696.1 796.8,689.2 808.7,696.1 820.5,702.9 808.7,709.8 800.1,714.7 788.2,721.6"/>
		<polygon id="XMLID_658_" fill-rule="evenodd" clip-rule="evenodd" fill="#5775aa" points="732.1,726.6 755.9,740.3 755.9,769.9 732.1,756.2"/>
		<polygon id="XMLID_657_" fill-rule="evenodd" clip-rule="evenodd" fill="#465e89" points="820.5,702.9 755.9,740.3 755.9,769.9 820.5,732.5"/>
		<polygon id="XMLID_656_" fill-rule="evenodd" clip-rule="evenodd" fill="#e6344c" points="803.4,740.3 791.5,747.1 779.6,754 767.8,747.1 755.9,740.3 767.8,733.4 779.6,726.6 788.2,721.6 800.1,714.7 800.1,714.7 808.7,709.8 820.5,702.9 832.4,709.8 844.3,716.7 832.4,723.5 823.8,728.5 812,735.3"/>
		<polygon id="XMLID_655_" fill-rule="evenodd" clip-rule="evenodd" fill="#c5181f" points="755.9,740.3 779.6,754 779.6,783.6 755.9,769.9"/>
		<polygon id="XMLID_654_" fill-rule="evenodd" clip-rule="evenodd" fill="#e50013" points="844.3,716.7 779.6,754 779.6,783.6 844.3,746.3"/>
		<polygon id="XMLID_653_" fill-rule="evenodd" clip-rule="evenodd" fill="#b2b54f" points="827.2,754 815.3,760.9 803.4,767.7 791.5,760.9 779.6,754 791.5,747.1 803.4,740.3 803.4,740.3 812,735.3 823.8,728.5 832.4,723.5 844.3,716.7 856.2,723.5 868.1,730.4 856.2,737.2 847.6,742.2 835.7,749"/>
		<polygon id="XMLID_652_" fill-rule="evenodd" clip-rule="evenodd" fill="#a7aa4e" points="779.6,754 803.4,767.7 803.4,797.3 779.6,783.6"/>
		<polygon id="XMLID_651_" fill-rule="evenodd" clip-rule="evenodd" fill="#465e89" points="868.1,730.4 803.4,767.7 803.4,797.3 868.1,760"/>
		<polygon id="XMLID_650_" fill-rule="evenodd" clip-rule="evenodd" fill="#97acdb" points="850.9,767.7 839,774.6 827.2,781.4 815.3,774.6 803.4,767.7 815.3,760.9 827.2,754 835.7,749 847.6,742.2 847.6,742.2 856.2,737.2 868.1,730.4 879.9,737.2 891.8,744.1 879.9,751 871.4,755.9 859.5,762.8"/>
		<polygon id="XMLID_649_" fill-rule="evenodd" clip-rule="evenodd" fill="#8ba1ce" points="803.4,767.7 827.2,781.4 827.2,811 803.4,797.3"/>
		<polygon id="XMLID_648_" fill-rule="evenodd" clip-rule="evenodd" fill="#465e89" points="891.8,744.1 827.2,781.4 827.2,811 891.8,773.7"/>
		<polygon id="XMLID_647_" fill-rule="evenodd" clip-rule="evenodd" fill="#e7c680" points="874.7,781.4 862.8,788.3 850.9,795.2 839,788.3 827.2,781.4 839,774.6 850.9,767.7 850.9,767.7 859.5,762.8 871.4,755.9 879.9,751 891.8,744.1 903.7,751 915.6,757.8 903.7,764.7 895.1,769.6 883.3,776.5"/>
		<polygon id="XMLID_646_" fill-rule="evenodd" clip-rule="evenodd" fill="#d3b473" points="827.2,781.4 850.9,795.2 850.9,824.8 827.2,811"/>
		<polygon id="XMLID_645_" fill-rule="evenodd" clip-rule="evenodd" fill="#465e89" points="915.6,757.8 850.9,795.2 850.9,824.8 915.6,787.4"/>
		<polygon id="XMLID_644_" fill-rule="evenodd" clip-rule="evenodd" fill="#ea7000" points="898.5,795.2 886.6,802 874.7,808.9 862.8,802 850.9,795.2 862.8,788.3 874.7,781.4 883.3,776.5 895.1,769.6 895.1,769.6 903.7,764.7 915.6,757.8 927.5,764.7 939.4,771.5 927.5,778.4 918.9,783.3 907,790.2"/>
		<polygon id="XMLID_643_" fill-rule="evenodd" clip-rule="evenodd" fill="#e46607" points="850.9,795.2 874.7,808.9 874.7,838.5 850.9,824.8"/>
		<polygon id="XMLID_642_" fill-rule="evenodd" clip-rule="evenodd" fill="#758dc4" points="939.4,771.5 874.7,808.9 874.7,838.5 939.4,801.1"/>
		<polygon id="XMLID_641_" fill-rule="evenodd" clip-rule="evenodd" fill="#ea7000" points="779.6,697 767.8,703.8 755.9,710.7 744,703.8 732.1,697 744,690.1 755.9,683.2 755.9,683.2 764.4,678.3 776.3,671.4 784.9,666.5 796.8,659.6 808.7,666.5 820.5,673.3 808.7,680.2 800.1,685.1 788.2,692"/>
		<polygon id="XMLID_640_" fill-rule="evenodd" clip-rule="evenodd" fill="#5775aa" points="732.1,697 755.9,710.7 755.9,740.3 732.1,726.6"/>
		<polygon id="XMLID_639_" fill-rule="evenodd" clip-rule="evenodd" fill="#465e89" points="820.5,673.3 755.9,710.7 755.9,740.3 820.5,702.9"/>
		<polygon id="XMLID_638_" fill-rule="evenodd" clip-rule="evenodd" fill="#97acdb" points="803.4,710.7 791.5,717.5 779.6,724.4 767.8,717.5 755.9,710.7 767.8,703.8 779.6,697 788.2,692 800.1,685.1 800.1,685.1 808.7,680.2 820.5,673.3 832.4,680.2 844.3,687.1 832.4,693.9 823.8,698.9 812,705.7"/>
		<polygon id="XMLID_637_" fill-rule="evenodd" clip-rule="evenodd" fill="#c5181f" points="755.9,710.7 779.6,724.4 779.6,754 755.9,740.3"/>
		<polygon id="XMLID_636_" fill-rule="evenodd" clip-rule="evenodd" fill="#e50013" points="844.3,687.1 779.6,724.4 779.6,754 844.3,716.7"/>
		<polygon id="XMLID_635_" fill-rule="evenodd" clip-rule="evenodd" fill="#b2b54f" points="827.2,724.4 815.3,731.3 803.4,738.1 791.5,731.3 779.6,724.4 791.5,717.5 803.4,710.7 803.4,710.7 812,705.7 823.8,698.9 832.4,693.9 844.3,687.1 856.2,693.9 868.1,700.8 856.2,707.6 847.6,712.6 835.7,719.4"/>
		<polygon id="XMLID_634_" fill-rule="evenodd" clip-rule="evenodd" fill="#a7aa4e" points="779.6,724.4 803.4,738.1 803.4,767.7 779.6,754"/>
		<polygon id="XMLID_633_" fill-rule="evenodd" clip-rule="evenodd" fill="#465e89" points="868.1,700.8 803.4,738.1 803.4,767.7 868.1,730.4"/>
		<polygon id="XMLID_632_" fill-rule="evenodd" clip-rule="evenodd" fill="#ea7000" points="850.9,738.1 839,745 827.2,751.8 815.3,745 803.4,738.1 815.3,731.3 827.2,724.4 835.7,719.4 847.6,712.6 847.6,712.6 856.2,707.6 868.1,700.8 879.9,707.6 891.8,714.5 879.9,721.4 871.4,726.3 859.5,733.2"/>
		<polygon id="XMLID_631_" fill-rule="evenodd" clip-rule="evenodd" fill="#8ba1ce" points="803.4,738.1 827.2,751.8 827.2,781.4 803.4,767.7"/>
		<polygon id="XMLID_630_" fill-rule="evenodd" clip-rule="evenodd" fill="#465e89" points="891.8,714.5 827.2,751.8 827.2,781.4 891.8,744.1"/>
		<polygon id="XMLID_629_" fill-rule="evenodd" clip-rule="evenodd" fill="#e7c680" points="874.7,751.8 862.8,758.7 850.9,765.6 839,758.7 827.2,751.8 839,745 850.9,738.1 850.9,738.1 859.5,733.2 871.4,726.3 879.9,721.4 891.8,714.5 903.7,721.4 915.6,728.2 903.7,735.1 895.1,740 883.3,746.9"/>
		<polygon id="XMLID_628_" fill-rule="evenodd" clip-rule="evenodd" fill="#d3b473" points="827.2,751.8 850.9,765.6 850.9,795.2 827.2,781.4"/>
		<polygon id="XMLID_627_" fill-rule="evenodd" clip-rule="evenodd" fill="#465e89" points="915.6,728.2 850.9,765.6 850.9,795.2 915.6,757.8"/>
		<polygon id="XMLID_626_" fill-rule="evenodd" clip-rule="evenodd" fill="#6080bc" points="898.5,765.6 886.6,772.4 874.7,779.3 862.8,772.4 850.9,765.6 862.8,758.7 874.7,751.8 883.3,746.9 895.1,740 895.1,740 903.7,735.1 915.6,728.2 927.5,735.1 939.4,741.9 927.5,748.8 918.9,753.7 907,760.6"/>
		<polygon id="XMLID_625_" fill-rule="evenodd" clip-rule="evenodd" fill="#e46607" points="850.9,765.6 874.7,779.3 874.7,808.9 850.9,795.2"/>
		<polygon id="XMLID_624_" fill-rule="evenodd" clip-rule="evenodd" fill="#5775aa" points="939.4,741.9 874.7,779.3 874.7,808.9 939.4,771.5"/>
		<polygon id="XMLID_623_" fill-rule="evenodd" clip-rule="evenodd" fill="#6080bc" points="715,763.9 703.1,770.8 691.2,777.6 679.3,770.8 667.4,763.9 679.3,757 691.2,750.2 699.8,745.2 711.7,738.4 720.2,733.4 732.1,726.6 744,733.4 755.9,740.3 744,747.1 735.4,752.1 723.5,758.9"/>
		<polygon id="XMLID_622_" fill-rule="evenodd" clip-rule="evenodd" fill="#5775aa" points="667.4,763.9 691.2,777.6 691.2,807.2 667.4,793.5"/>
		<polygon id="XMLID_621_" fill-rule="evenodd" clip-rule="evenodd" fill="#465e89" points="755.9,740.3 691.2,777.6 691.2,807.2 755.9,769.9"/>
		<polygon id="XMLID_620_" fill-rule="evenodd" clip-rule="evenodd" fill="#e6344c" points="738.7,777.6 726.8,784.5 715,791.3 703.1,784.5 691.2,777.6 703.1,770.8 715,763.9 723.5,758.9 735.4,752.1 744,747.1 755.9,740.3 767.8,747.1 779.6,754 767.8,760.9 759.2,765.8 747.3,772.7"/>
		<polygon id="XMLID_619_" fill-rule="evenodd" clip-rule="evenodd" fill="#c5181f" points="691.2,777.6 715,791.3 715,820.9 691.2,807.2"/>
		<polygon id="XMLID_618_" fill-rule="evenodd" clip-rule="evenodd" fill="#e50013" points="779.6,754 715,791.3 715,820.9 779.6,783.6"/>
		<polygon id="XMLID_617_" fill-rule="evenodd" clip-rule="evenodd" fill="#b2b54f" points="762.5,791.3 750.6,798.2 738.7,805.1 726.8,798.2 715,791.3 726.8,784.5 738.7,777.6 738.7,777.6 747.3,772.7 759.2,765.8 767.7,760.9 779.6,754 791.5,760.9 803.4,767.7 791.5,774.6 782.9,779.5 771.1,786.4"/>
		<polygon id="XMLID_616_" fill-rule="evenodd" clip-rule="evenodd" fill="#a7aa4e" points="715,791.3 738.7,805.1 738.7,834.7 715,820.9"/>
		<polygon id="XMLID_615_" fill-rule="evenodd" clip-rule="evenodd" fill="#465e89" points="803.4,767.7 738.7,805.1 738.7,834.7 803.4,797.3"/>
		<polygon id="XMLID_614_" fill-rule="evenodd" clip-rule="evenodd" fill="#97acdb" points="786.3,805.1 774.4,811.9 762.5,818.8 750.6,811.9 738.7,805.1 750.6,798.2 762.5,791.3 771.1,786.4 782.9,779.5 782.9,779.5 791.5,774.6 803.4,767.7 815.3,774.6 827.2,781.4 815.3,788.3 806.7,793.2 794.8,800.1"/>
		<polygon id="XMLID_613_" fill-rule="evenodd" clip-rule="evenodd" fill="#8ba1ce" points="738.7,805.1 762.5,818.8 762.5,848.4 738.7,834.7"/>
		<polygon id="XMLID_612_" fill-rule="evenodd" clip-rule="evenodd" fill="#465e89" points="827.2,781.4 762.5,818.8 762.5,848.4 827.2,811"/>
		<polygon id="XMLID_611_" fill-rule="evenodd" clip-rule="evenodd" fill="#e7c680" points="810,818.8 798.1,825.6 786.3,832.5 774.4,825.6 762.5,818.8 774.4,811.9 786.3,805.1 786.3,805.1 794.8,800.1 806.7,793.2 815.3,788.3 827.2,781.4 839,788.3 850.9,795.2 839,802 830.5,807 818.6,813.8"/>
		<polygon id="XMLID_610_" fill-rule="evenodd" clip-rule="evenodd" fill="#d3b473" points="762.5,818.8 786.3,832.5 786.3,862.1 762.5,848.4"/>
		<polygon id="XMLID_609_" fill-rule="evenodd" clip-rule="evenodd" fill="#465e89" points="850.9,795.2 786.3,832.5 786.3,862.1 850.9,824.8"/>
		<polygon id="XMLID_608_" fill-rule="evenodd" clip-rule="evenodd" fill="#ea7000" points="833.8,832.5 821.9,839.3 810,846.2 798.1,839.3 786.3,832.5 798.1,825.6 810,818.8 818.6,813.8 830.5,807 830.5,807 839,802 850.9,795.2 862.8,802 874.7,808.9 862.8,815.7 854.2,820.7 842.4,827.5"/>
		<polygon id="XMLID_607_" fill-rule="evenodd" clip-rule="evenodd" fill="#e46607" points="786.3,832.5 810,846.2 810,875.8 786.3,862.1"/>
		<polygon id="XMLID_606_" fill-rule="evenodd" clip-rule="evenodd" fill="#d3b473" points="874.7,808.9 810,846.2 810,875.8 874.7,838.5"/>
		<polygon id="XMLID_605_" fill-rule="evenodd" clip-rule="evenodd" fill="#e6344c" points="715,734.3 703.1,741.2 691.2,748 679.3,741.2 667.4,734.3 679.3,727.4 691.2,720.6 699.8,715.6 711.7,708.8 720.2,703.8 732.1,697 744,703.8 755.9,710.7 744,717.5 735.4,722.5 723.5,729.3"/>
		<polygon id="XMLID_604_" fill-rule="evenodd" clip-rule="evenodd" fill="#5775aa" points="667.4,734.3 691.2,748 691.2,777.6 667.4,763.9"/>
		<polygon id="XMLID_603_" fill-rule="evenodd" clip-rule="evenodd" fill="#465e89" points="755.9,710.7 691.2,748 691.2,777.6 755.9,740.3"/>
		<polygon id="XMLID_602_" fill-rule="evenodd" clip-rule="evenodd" fill="#e7c680" points="738.7,748 726.8,754.9 715,761.7 703.1,754.9 691.2,748 703.1,741.2 715,734.3 723.5,729.3 735.4,722.5 744,717.5 755.9,710.7 767.8,717.5 779.6,724.4 767.8,731.3 759.2,736.2 747.3,743.1"/>
		<polygon id="XMLID_601_" fill-rule="evenodd" clip-rule="evenodd" fill="#c5181f" points="691.2,748 715,761.7 715,791.3 691.2,777.6"/>
		<polygon id="XMLID_600_" fill-rule="evenodd" clip-rule="evenodd" fill="#e50013" points="779.6,724.4 715,761.7 715,791.3 779.6,754"/>
		<polygon id="XMLID_599_" fill-rule="evenodd" clip-rule="evenodd" fill="#6080bc" points="762.5,761.7 750.6,768.6 738.7,775.4 726.8,768.6 715,761.7 726.8,754.9 738.7,748 738.7,748 747.3,743.1 759.2,736.2 767.7,731.3 779.6,724.4 791.5,731.3 803.4,738.1 791.5,745 782.9,749.9 771.1,756.8"/>
		<polygon id="XMLID_598_" fill-rule="evenodd" clip-rule="evenodd" fill="#a7aa4e" points="715,761.7 738.7,775.4 738.7,805.1 715,791.3"/>
		<polygon id="XMLID_597_" fill-rule="evenodd" clip-rule="evenodd" fill="#465e89" points="803.4,738.1 738.7,775.4 738.7,805.1 803.4,767.7"/>
		<polygon id="XMLID_596_" fill-rule="evenodd" clip-rule="evenodd" fill="#97acdb" points="786.3,775.4 774.4,782.3 762.5,789.2 750.6,782.3 738.7,775.4 750.6,768.6 762.5,761.7 771.1,756.8 782.9,749.9 782.9,749.9 791.5,745 803.4,738.1 815.3,745 827.2,751.8 815.3,758.7 806.7,763.6 794.8,770.5"/>
		<polygon id="XMLID_595_" fill-rule="evenodd" clip-rule="evenodd" fill="#8ba1ce" points="738.7,775.4 762.5,789.2 762.5,818.8 738.7,805.1"/>
		<polygon id="XMLID_594_" fill-rule="evenodd" clip-rule="evenodd" fill="#465e89" points="827.2,751.8 762.5,789.2 762.5,818.8 827.2,781.4"/>
		<polygon id="XMLID_593_" fill-rule="evenodd" clip-rule="evenodd" fill="#6080bc" points="810,789.2 798.1,796 786.3,802.9 774.4,796 762.5,789.2 774.4,782.3 786.3,775.4 786.3,775.4 794.8,770.5 806.7,763.6 815.3,758.7 827.2,751.8 839,758.7 850.9,765.6 839,772.4 830.5,777.4 818.6,784.2"/>
		<polygon id="XMLID_592_" fill-rule="evenodd" clip-rule="evenodd" fill="#d3b473" points="762.5,789.2 786.3,802.9 786.3,832.5 762.5,818.8"/>
		<polygon id="XMLID_591_" fill-rule="evenodd" clip-rule="evenodd" fill="#465e89" points="850.9,765.6 786.3,802.9 786.3,832.5 850.9,795.2"/>
		<polygon id="XMLID_590_" fill-rule="evenodd" clip-rule="evenodd" fill="#ea7000" points="833.8,802.9 821.9,809.7 810,816.6 798.1,809.7 786.3,802.9 798.1,796 810,789.2 818.6,784.2 830.5,777.4 830.5,777.4 839,772.4 850.9,765.6 862.8,772.4 874.7,779.3 862.8,786.1 854.2,791.1 842.4,797.9"/>
		<polygon id="XMLID_589_" fill-rule="evenodd" clip-rule="evenodd" fill="#e46607" points="786.3,802.9 810,816.6 810,846.2 786.3,832.5"/>
		<polygon id="XMLID_588_" fill-rule="evenodd" clip-rule="evenodd" fill="#ac5219" points="874.7,779.3 810,816.6 810,846.2 874.7,808.9"/>
		<polygon id="XMLID_587_" fill-rule="evenodd" clip-rule="evenodd" fill="#6080bc" points="650.3,801.2 638.4,808.1 626.5,815 614.6,808.1 602.8,801.2 614.6,794.4 626.5,787.5 635.1,782.6 647,775.7 647,775.7 655.6,770.8 667.4,763.9 679.3,770.8 691.2,777.6 679.3,784.5 670.7,789.4 658.9,796.3"/>
		<polygon id="XMLID_586_" fill-rule="evenodd" clip-rule="evenodd" fill="#5775aa" points="602.8,801.2 626.5,815 626.5,844.6 602.8,830.8"/>
		<polygon id="XMLID_585_" fill-rule="evenodd" clip-rule="evenodd" fill="#465e89" points="691.2,777.6 626.5,815 626.5,844.6 691.2,807.2"/>
		<polygon id="XMLID_584_" fill-rule="evenodd" clip-rule="evenodd" fill="#e6344c" points="674.1,814.9 662.2,821.8 650.3,828.7 638.4,821.8 626.5,814.9 638.4,808.1 650.3,801.2 658.9,796.3 670.7,789.4 679.3,784.5 691.2,777.6 703.1,784.5 715,791.3 703.1,798.2 694.5,803.1 682.6,810"/>
		<polygon id="XMLID_583_" fill-rule="evenodd" clip-rule="evenodd" fill="#c5181f" points="626.5,814.9 650.3,828.7 650.3,858.3 626.5,844.6"/>
		<polygon id="XMLID_582_" fill-rule="evenodd" clip-rule="evenodd" fill="#e50013" points="715,791.3 650.3,828.7 650.3,858.3 715,820.9"/>
		<polygon id="XMLID_581_" fill-rule="evenodd" clip-rule="evenodd" fill="#b2b54f" points="697.8,828.7 685.9,835.5 674.1,842.4 662.2,835.5 650.3,828.7 662.2,821.8 674.1,814.9 682.6,810 694.5,803.1 703.1,798.2 715,791.3 726.8,798.2 738.7,805.1 726.8,811.9 718.3,816.9 706.4,823.7"/>
		<polygon id="XMLID_580_" fill-rule="evenodd" clip-rule="evenodd" fill="#a7aa4e" points="650.3,828.7 674.1,842.4 674.1,872 650.3,858.3"/>
		<polygon id="XMLID_579_" fill-rule="evenodd" clip-rule="evenodd" fill="#465e89" points="738.7,805.1 674.1,842.4 674.1,872 738.7,834.7"/>
		<polygon id="XMLID_578_" fill-rule="evenodd" clip-rule="evenodd" fill="#97acdb" points="721.6,842.4 709.7,849.2 697.8,856.1 685.9,849.2 674.1,842.4 685.9,835.5 697.8,828.7 706.4,823.7 718.3,816.9 726.8,811.9 738.7,805.1 750.6,811.9 762.5,818.8 750.6,825.6 742,830.6 730.2,837.4"/>
		<polygon id="XMLID_577_" fill-rule="evenodd" clip-rule="evenodd" fill="#8ba1ce" points="674.1,842.4 697.8,856.1 697.8,885.7 674.1,872"/>
		<polygon id="XMLID_576_" fill-rule="evenodd" clip-rule="evenodd" fill="#465e89" points="762.5,818.8 697.8,856.1 697.8,885.7 762.5,848.4"/>
		<polygon id="XMLID_575_" fill-rule="evenodd" clip-rule="evenodd" fill="#e7c680" points="745.3,856.1 733.5,863 721.6,869.8 709.7,863 697.8,856.1 709.7,849.2 721.6,842.4 721.6,842.4 730.2,837.4 742,830.6 750.6,825.6 762.5,818.8 774.4,825.6 786.3,832.5 774.4,839.4 765.8,844.3 753.9,851.2"/>
		<polygon id="XMLID_574_" fill-rule="evenodd" clip-rule="evenodd" fill="#d3b473" points="697.8,856.1 721.6,869.8 721.6,899.4 697.8,885.7"/>
		<polygon id="XMLID_573_" fill-rule="evenodd" clip-rule="evenodd" fill="#465e89" points="786.3,832.5 721.6,869.8 721.6,899.4 786.3,862.1"/>
		<polygon id="XMLID_572_" fill-rule="evenodd" clip-rule="evenodd" fill="#ea7000" points="769.1,869.8 757.2,876.7 745.3,883.5 733.5,876.7 721.6,869.8 733.5,863 745.3,856.1 753.9,851.2 765.8,844.3 774.4,839.3 786.3,832.5 798.1,839.3 810,846.2 798.1,853.1 789.6,858 777.7,864.9"/>
		<polygon id="XMLID_571_" fill-rule="evenodd" clip-rule="evenodd" fill="#e46607" points="721.6,869.8 745.3,883.5 745.3,913.2 721.6,899.4"/>
		<polygon id="XMLID_570_" fill-rule="evenodd" clip-rule="evenodd" fill="#758dc4" points="810,846.2 745.3,883.5 745.3,913.2 810,875.8"/>
		<polygon id="XMLID_569_" fill-rule="evenodd" clip-rule="evenodd" fill="#e7c680" points="650.3,771.6 638.4,778.5 626.5,785.3 614.6,778.5 602.8,771.6 614.6,764.8 626.5,757.9 635.1,753 647,746.1 647,746.1 655.6,741.2 667.4,734.3 679.3,741.2 691.2,748 679.3,754.9 670.7,759.8 658.9,766.7"/>
		<polygon id="XMLID_568_" fill-rule="evenodd" clip-rule="evenodd" fill="#5775aa" points="602.8,771.6 626.5,785.3 626.5,815 602.8,801.2"/>
		<polygon id="XMLID_567_" fill-rule="evenodd" clip-rule="evenodd" fill="#465e89" points="691.2,748 626.5,785.3 626.5,815 691.2,777.6"/>
		<polygon id="XMLID_566_" fill-rule="evenodd" clip-rule="evenodd" fill="#e6344c" points="674.1,785.3 662.2,792.2 650.3,799.1 638.4,792.2 626.5,785.3 638.4,778.5 650.3,771.6 658.9,766.7 670.7,759.8 679.3,754.9 691.2,748 703.1,754.9 715,761.7 703.1,768.6 694.5,773.5 682.6,780.4"/>
		<polygon id="XMLID_565_" fill-rule="evenodd" clip-rule="evenodd" fill="#c5181f" points="626.5,785.3 650.3,799.1 650.3,828.7 626.5,814.9"/>
		<polygon id="XMLID_564_" fill-rule="evenodd" clip-rule="evenodd" fill="#e50013" points="715,761.7 650.3,799.1 650.3,828.7 715,791.3"/>
		<polygon id="XMLID_563_" fill-rule="evenodd" clip-rule="evenodd" fill="#ea7000" points="697.8,799.1 685.9,805.9 674.1,812.8 662.2,805.9 650.3,799.1 662.2,792.2 674.1,785.3 682.6,780.4 694.5,773.5 703.1,768.6 715,761.7 726.8,768.6 738.7,775.4 726.8,782.3 718.3,787.3 706.4,794.1"/>
		<polygon id="XMLID_562_" fill-rule="evenodd" clip-rule="evenodd" fill="#a7aa4e" points="650.3,799.1 674.1,812.8 674.1,842.4 650.3,828.7"/>
		<polygon id="XMLID_561_" fill-rule="evenodd" clip-rule="evenodd" fill="#465e89" points="738.7,775.4 674.1,812.8 674.1,842.4 738.7,805.1"/>
		<polygon id="XMLID_560_" fill-rule="evenodd" clip-rule="evenodd" fill="#6080bc" points="721.6,812.8 709.7,819.6 697.8,826.5 685.9,819.6 674.1,812.8 685.9,805.9 697.8,799.1 706.4,794.1 718.3,787.3 726.8,782.3 738.7,775.4 750.6,782.3 762.5,789.2 750.6,796 742,801 730.2,807.8"/>
		<polygon id="XMLID_559_" fill-rule="evenodd" clip-rule="evenodd" fill="#8ba1ce" points="674.1,812.8 697.8,826.5 697.8,856.1 674.1,842.4"/>
		<polygon id="XMLID_558_" fill-rule="evenodd" clip-rule="evenodd" fill="#465e89" points="762.5,789.2 697.8,826.5 697.8,856.1 762.5,818.8"/>
		<polygon id="XMLID_557_" fill-rule="evenodd" clip-rule="evenodd" fill="#ea7000" points="745.3,826.5 733.5,833.4 721.6,840.2 709.7,833.4 697.8,826.5 709.7,819.6 721.6,812.8 721.6,812.8 730.2,807.8 742,801 750.6,796 762.5,789.2 774.4,796 786.3,802.9 774.4,809.7 765.8,814.7 753.9,821.6"/>
		<polygon id="XMLID_556_" fill-rule="evenodd" clip-rule="evenodd" fill="#d3b473" points="697.8,826.5 721.6,840.2 721.6,869.8 697.8,856.1"/>
		<polygon id="XMLID_555_" fill-rule="evenodd" clip-rule="evenodd" fill="#465e89" points="786.3,802.9 721.6,840.2 721.6,869.8 786.3,832.5"/>
		<polygon id="XMLID_554_" fill-rule="evenodd" clip-rule="evenodd" fill="#e6344c" points="769.1,840.2 757.2,847.1 745.3,853.9 733.5,847.1 721.6,840.2 733.5,833.4 745.3,826.5 753.9,821.6 765.8,814.7 774.4,809.7 786.3,802.9 798.1,809.7 810,816.6 798.1,823.5 789.6,828.4 777.7,835.3"/>
		<polygon id="XMLID_553_" fill-rule="evenodd" clip-rule="evenodd" fill="#e46607" points="721.6,840.2 745.3,853.9 745.3,883.5 721.6,869.8"/>
		<polygon id="XMLID_552_" fill-rule="evenodd" clip-rule="evenodd" fill="#c5181f" points="810,816.6 745.3,853.9 745.3,883.5 810,846.2"/>
		<polygon id="XMLID_551_" fill-rule="evenodd" clip-rule="evenodd" fill="#6080bc" points="585.6,838.6 573.7,845.4 561.9,852.3 550,845.4 538.1,838.6 550,831.7 561.9,824.8 570.4,819.9 582.3,813 582.3,813 590.9,808.1 602.8,801.2 614.6,808.1 626.5,815 614.6,821.8 606.1,826.8 594.2,833.6"/>
		<polygon id="XMLID_550_" fill-rule="evenodd" clip-rule="evenodd" fill="#5775aa" points="538.1,838.6 561.9,852.3 561.9,881.9 538.1,868.2"/>
		<polygon id="XMLID_549_" fill-rule="evenodd" clip-rule="evenodd" fill="#465e89" points="626.5,815 561.9,852.3 561.9,881.9 626.5,844.6"/>
		<polygon id="XMLID_548_" fill-rule="evenodd" clip-rule="evenodd" fill="#e6344c" points="609.4,852.3 597.5,859.1 585.6,866 573.7,859.1 561.9,852.3 573.7,845.4 585.6,838.6 594.2,833.6 606.1,826.8 614.6,821.8 626.5,814.9 638.4,821.8 650.3,828.7 638.4,835.5 629.8,840.5 618,847.3"/>
		<polygon id="XMLID_547_" fill-rule="evenodd" clip-rule="evenodd" fill="#c5181f" points="561.9,852.3 585.6,866 585.6,895.6 561.9,881.9"/>
		<polygon id="XMLID_546_" fill-rule="evenodd" clip-rule="evenodd" fill="#e50013" points="650.3,828.7 585.6,866 585.6,895.6 650.3,858.3"/>
		<polygon id="XMLID_545_" fill-rule="evenodd" clip-rule="evenodd" fill="#b2b54f" points="633.2,866 621.3,872.9 609.4,879.7 597.5,872.9 585.6,866 597.5,859.1 609.4,852.3 618,847.3 629.8,840.5 629.8,840.5 638.4,835.5 650.3,828.7 662.2,835.5 674.1,842.4 662.2,849.2 653.6,854.2 641.7,861.1"/>
		<polygon id="XMLID_544_" fill-rule="evenodd" clip-rule="evenodd" fill="#a7aa4e" points="585.6,866 609.4,879.7 609.4,909.3 585.6,895.6"/>
		<polygon id="XMLID_543_" fill-rule="evenodd" clip-rule="evenodd" fill="#465e89" points="674.1,842.4 609.4,879.7 609.4,909.3 674.1,872"/>
		<polygon id="XMLID_542_" fill-rule="evenodd" clip-rule="evenodd" fill="#97acdb" points="656.9,879.7 645,886.6 633.1,893.4 621.3,886.6 609.4,879.7 621.3,872.9 633.1,866 641.7,861.1 653.6,854.2 662.2,849.2 674.1,842.4 685.9,849.2 697.8,856.1 685.9,863 677.4,867.9 665.5,874.8"/>
		<polygon id="XMLID_541_" fill-rule="evenodd" clip-rule="evenodd" fill="#8ba1ce" points="609.4,879.7 633.1,893.4 633.1,923 609.4,909.3"/>
		<polygon id="XMLID_540_" fill-rule="evenodd" clip-rule="evenodd" fill="#465e89" points="697.8,856.1 633.1,893.4 633.1,923 697.8,885.7"/>
		<polygon id="XMLID_539_" fill-rule="evenodd" clip-rule="evenodd" fill="#e7c680" points="680.7,893.4 668.8,900.3 656.9,907.2 645,900.3 633.1,893.4 645,886.6 656.9,879.7 665.5,874.8 677.4,867.9 685.9,863 697.8,856.1 709.7,863 721.6,869.8 709.7,876.7 701.1,881.6 689.2,888.5"/>
		<polygon id="XMLID_538_" fill-rule="evenodd" clip-rule="evenodd" fill="#d3b473" points="633.1,893.4 656.9,907.2 656.9,936.8 633.1,923"/>
		<polygon id="XMLID_537_" fill-rule="evenodd" clip-rule="evenodd" fill="#465e89" points="721.6,869.8 656.9,907.2 656.9,936.8 721.6,899.4"/>
		<polygon id="XMLID_536_" fill-rule="evenodd" clip-rule="evenodd" fill="#ea7000" points="704.4,907.2 692.6,914 680.7,920.9 668.8,914 656.9,907.2 668.8,900.3 680.7,893.4 689.2,888.5 701.1,881.6 709.7,876.7 721.6,869.8 733.5,876.7 745.3,883.5 733.5,890.4 724.9,895.4 713,902.2"/>
		<polygon id="XMLID_535_" fill-rule="evenodd" clip-rule="evenodd" fill="#e46607" points="656.9,907.2 680.7,920.9 680.7,950.5 656.9,936.8"/>
		<polygon id="XMLID_534_" fill-rule="evenodd" clip-rule="evenodd" fill="#ac5219" points="745.3,883.5 680.7,920.9 680.7,950.5 745.3,913.2"/>
		<polygon id="XMLID_533_" fill-rule="evenodd" clip-rule="evenodd" fill="#97acdb" points="585.6,809 573.7,815.8 561.9,822.7 550,815.8 538.1,809 550,802.1 561.9,795.2 570.4,790.3 582.3,783.4 582.3,783.4 590.9,778.5 602.8,771.6 614.6,778.5 626.5,785.3 614.6,792.2 606.1,797.2 594.2,804"/>
		<polygon id="XMLID_532_" fill-rule="evenodd" clip-rule="evenodd" fill="#5775aa" points="538.1,809 561.9,822.7 561.9,852.3 538.1,838.6"/>
		<polygon id="XMLID_531_" fill-rule="evenodd" clip-rule="evenodd" fill="#465e89" points="626.5,785.3 561.9,822.7 561.9,852.3 626.5,815"/>
		<polygon id="XMLID_530_" fill-rule="evenodd" clip-rule="evenodd" fill="#ea7000" points="609.4,822.7 597.5,829.5 585.6,836.4 573.7,829.5 561.9,822.7 573.7,815.8 585.6,809 594.2,804 606.1,797.2 614.6,792.2 626.5,785.3 638.4,792.2 650.3,799.1 638.4,805.9 629.8,810.9 618,817.7"/>
		<polygon id="XMLID_529_" fill-rule="evenodd" clip-rule="evenodd" fill="#c5181f" points="561.9,822.7 585.6,836.4 585.6,866 561.9,852.3"/>
		<polygon id="XMLID_528_" fill-rule="evenodd" clip-rule="evenodd" fill="#e50013" points="650.3,799.1 585.6,836.4 585.6,866 650.3,828.7"/>
		<polygon id="XMLID_527_" fill-rule="evenodd" clip-rule="evenodd" fill="#e7c680" points="633.2,836.4 621.3,843.3 609.4,850.1 597.5,843.3 585.6,836.4 597.5,829.5 609.4,822.7 618,817.7 629.8,810.9 629.8,810.9 638.4,805.9 650.3,799.1 662.2,805.9 674.1,812.8 662.2,819.6 653.6,824.6 641.7,831.5"/>
		<polygon id="XMLID_526_" fill-rule="evenodd" clip-rule="evenodd" fill="#a7aa4e" points="585.6,836.4 609.4,850.1 609.4,879.7 585.6,866"/>
		<polygon id="XMLID_525_" fill-rule="evenodd" clip-rule="evenodd" fill="#465e89" points="674.1,812.8 609.4,850.1 609.4,879.7 674.1,842.4"/>
		<polygon id="XMLID_524_" fill-rule="evenodd" clip-rule="evenodd" fill="#ea7000" points="656.9,850.1 645,857 633.1,863.8 621.3,857 609.4,850.1 621.3,843.3 633.1,836.4 641.7,831.5 653.6,824.6 662.2,819.6 674.1,812.8 685.9,819.6 697.8,826.5 685.9,833.4 677.4,838.3 665.5,845.2"/>
		<polygon id="XMLID_523_" fill-rule="evenodd" clip-rule="evenodd" fill="#8ba1ce" points="609.4,850.1 633.1,863.8 633.1,893.4 609.4,879.7"/>
		<polygon id="XMLID_522_" fill-rule="evenodd" clip-rule="evenodd" fill="#465e89" points="697.8,826.5 633.1,863.8 633.1,893.4 697.8,856.1"/>
		<polygon id="XMLID_521_" fill-rule="evenodd" clip-rule="evenodd" fill="#e7c680" points="680.7,863.8 668.8,870.7 656.9,877.6 645,870.7 633.1,863.8 645,857 656.9,850.1 665.5,845.2 677.4,838.3 685.9,833.4 697.8,826.5 709.7,833.4 721.6,840.2 709.7,847.1 701.1,852 689.2,858.9"/>
		<polygon id="XMLID_520_" fill-rule="evenodd" clip-rule="evenodd" fill="#d3b473" points="633.1,863.8 656.9,877.6 656.9,907.2 633.1,893.4"/>
		<polygon id="XMLID_519_" fill-rule="evenodd" clip-rule="evenodd" fill="#465e89" points="721.6,840.2 656.9,877.6 656.9,907.2 721.6,869.8"/>
		<polygon id="XMLID_518_" fill-rule="evenodd" clip-rule="evenodd" fill="#6080bc" points="704.4,877.6 692.6,884.4 680.7,891.3 668.8,884.4 656.9,877.6 668.8,870.7 680.7,863.8 689.2,858.9 701.1,852 709.7,847.1 721.6,840.2 733.5,847.1 745.3,853.9 733.5,860.8 724.9,865.8 713,872.6"/>
		<polygon id="XMLID_517_" fill-rule="evenodd" clip-rule="evenodd" fill="#e46607" points="656.9,877.6 680.7,891.3 680.7,920.9 656.9,907.2"/>
		<polygon id="XMLID_516_" fill-rule="evenodd" clip-rule="evenodd" fill="#5775aa" points="745.3,853.9 680.7,891.3 680.7,920.9 745.3,883.5"/>
		<polygon id="XMLID_515_" fill-rule="evenodd" clip-rule="evenodd" fill="#6080bc" points="521,875.9 509.1,882.8 497.2,889.6 485.3,882.8 473.4,875.9 485.3,869 497.2,862.2 505.8,857.2 517.6,850.4 517.6,850.4 526.2,845.4 538.1,838.6 550,845.4 561.9,852.3 550,859.1 541.4,864.1 529.5,871"/>
		<polygon id="XMLID_514_" fill-rule="evenodd" clip-rule="evenodd" fill="#5775aa" points="473.4,875.9 497.2,889.6 497.2,919.2 473.4,905.5"/>
		<polygon id="XMLID_513_" fill-rule="evenodd" clip-rule="evenodd" fill="#465e89" points="561.9,852.3 497.2,889.6 497.2,919.2 561.9,881.9"/>
		<polygon id="XMLID_512_" fill-rule="evenodd" clip-rule="evenodd" fill="#e6344c" points="544.7,889.6 532.8,896.5 521,903.3 509.1,896.5 497.2,889.6 509.1,882.8 521,875.9 521,875.9 529.5,871 541.4,864.1 550,859.1 561.9,852.3 573.7,859.1 585.6,866 573.7,872.9 565.2,877.8 553.3,884.7"/>
		<polygon id="XMLID_511_" fill-rule="evenodd" clip-rule="evenodd" fill="#c5181f" points="497.2,889.6 521,903.3 521,932.9 497.2,919.2"/>
		<polygon id="XMLID_510_" fill-rule="evenodd" clip-rule="evenodd" fill="#e50013" points="585.6,866 521,903.3 521,932.9 585.6,895.6"/>
		<polygon id="XMLID_509_" fill-rule="evenodd" clip-rule="evenodd" fill="#b2b54f" points="568.5,903.3 556.6,910.2 544.7,917.1 532.8,910.2 521,903.3 532.8,896.5 544.7,889.6 553.3,884.7 565.2,877.8 565.2,877.8 573.7,872.9 585.6,866 597.5,872.9 609.4,879.7 597.5,886.6 588.9,891.5 577.1,898.4"/>
		<polygon id="XMLID_508_" fill-rule="evenodd" clip-rule="evenodd" fill="#a7aa4e" points="521,903.3 544.7,917.1 544.7,946.7 521,932.9"/>
		<polygon id="XMLID_507_" fill-rule="evenodd" clip-rule="evenodd" fill="#465e89" points="609.4,879.7 544.7,917.1 544.7,946.7 609.4,909.3"/>
		<polygon id="XMLID_506_" fill-rule="evenodd" clip-rule="evenodd" fill="#97acdb" points="592.2,917.1 580.4,923.9 568.5,930.8 556.6,923.9 544.7,917.1 556.6,910.2 568.5,903.3 568.5,903.3 577,898.4 588.9,891.5 597.5,886.6 609.4,879.7 621.3,886.6 633.1,893.4 621.3,900.3 612.7,905.3 600.8,912.1"/>
		<polygon id="XMLID_505_" fill-rule="evenodd" clip-rule="evenodd" fill="#8ba1ce" points="544.7,917.1 568.5,930.8 568.5,960.4 544.7,946.7"/>
		<polygon id="XMLID_504_" fill-rule="evenodd" clip-rule="evenodd" fill="#465e89" points="633.1,893.4 568.5,930.8 568.5,960.4 633.1,923"/>
		<polygon id="XMLID_503_" fill-rule="evenodd" clip-rule="evenodd" fill="#e7c680" points="616,930.8 604.1,937.6 592.2,944.5 580.4,937.6 568.5,930.8 580.4,923.9 592.2,917.1 600.8,912.1 612.7,905.3 612.7,905.3 621.3,900.3 633.1,893.4 645,900.3 656.9,907.2 645,914 636.5,919 624.6,925.8"/>
		<polygon id="XMLID_502_" fill-rule="evenodd" clip-rule="evenodd" fill="#d3b473" points="568.5,930.8 592.2,944.5 592.2,974.1 568.5,960.4"/>
		<polygon id="XMLID_501_" fill-rule="evenodd" clip-rule="evenodd" fill="#465e89" points="656.9,907.2 592.2,944.5 592.2,974.1 656.9,936.8"/>
		<polygon id="XMLID_500_" fill-rule="evenodd" clip-rule="evenodd" fill="#ea7000" points="639.8,944.5 627.9,951.4 616,958.2 604.1,951.4 592.2,944.5 604.1,937.6 616,930.8 624.6,925.8 636.5,919 645,914 656.9,907.2 668.8,914 680.7,920.9 668.8,927.7 660.2,932.7 648.3,939.6"/>
		<polygon id="XMLID_499_" fill-rule="evenodd" clip-rule="evenodd" fill="#e46607" points="592.2,944.5 616,958.2 616,987.8 592.2,974.1"/>
		<polygon id="XMLID_498_" fill-rule="evenodd" clip-rule="evenodd" fill="#d3b473" points="680.7,920.9 616,958.2 616,987.8 680.7,950.5"/>
		<polygon id="XMLID_497_" fill-rule="evenodd" clip-rule="evenodd" fill="#b2b54f" points="521,846.3 509.1,853.2 497.2,860 485.3,853.2 473.4,846.3 485.3,839.4 497.2,832.6 505.8,827.6 517.6,820.8 517.6,820.8 526.2,815.8 538.1,809 550,815.8 561.9,822.7 550,829.5 541.4,834.5 529.5,841.4"/>
		<polygon id="XMLID_496_" fill-rule="evenodd" clip-rule="evenodd" fill="#5775aa" points="473.4,846.3 497.2,860 497.2,889.6 473.4,875.9"/>
		<polygon id="XMLID_495_" fill-rule="evenodd" clip-rule="evenodd" fill="#465e89" points="561.9,822.7 497.2,860 497.2,889.6 561.9,852.3"/>
		<polygon id="XMLID_494_" fill-rule="evenodd" clip-rule="evenodd" fill="#e7c680" points="544.7,860 532.8,866.9 521,873.7 509.1,866.9 497.2,860 509.1,853.2 521,846.3 521,846.3 529.5,841.4 541.4,834.5 550,829.5 561.9,822.7 573.7,829.5 585.6,836.4 573.7,843.3 565.2,848.2 553.3,855.1"/>
		<polygon id="XMLID_493_" fill-rule="evenodd" clip-rule="evenodd" fill="#c5181f" points="497.2,860 521,873.7 521,903.3 497.2,889.6"/>
		<polygon id="XMLID_492_" fill-rule="evenodd" clip-rule="evenodd" fill="#e50013" points="585.6,836.4 521,873.7 521,903.3 585.6,866"/>
		<polygon id="XMLID_491_" fill-rule="evenodd" clip-rule="evenodd" fill="#b2b54f" points="568.5,873.7 556.6,880.6 544.7,887.5 532.8,880.6 521,873.7 532.8,866.9 544.7,860 553.3,855.1 565.2,848.2 565.2,848.2 573.7,843.3 585.6,836.4 597.5,843.3 609.4,850.1 597.5,857 588.9,861.9 577.1,868.8"/>
		<polygon id="XMLID_490_" fill-rule="evenodd" clip-rule="evenodd" fill="#a7aa4e" points="521,873.7 544.7,887.5 544.7,917.1 521,903.3"/>
		<polygon id="XMLID_489_" fill-rule="evenodd" clip-rule="evenodd" fill="#465e89" points="609.4,850.1 544.7,887.5 544.7,917.1 609.4,879.7"/>
		<polygon id="XMLID_488_" fill-rule="evenodd" clip-rule="evenodd" fill="#6080bc" points="592.2,887.5 580.4,894.3 568.5,901.2 556.6,894.3 544.7,887.5 556.6,880.6 568.5,873.7 568.5,873.7 577,868.8 588.9,861.9 597.5,857 609.4,850.1 621.3,857 633.1,863.8 621.3,870.7 612.7,875.7 600.8,882.5"/>
		<polygon id="XMLID_487_" fill-rule="evenodd" clip-rule="evenodd" fill="#8ba1ce" points="544.7,887.5 568.5,901.2 568.5,930.8 544.7,917.1"/>
		<polygon id="XMLID_486_" fill-rule="evenodd" clip-rule="evenodd" fill="#465e89" points="633.1,863.8 568.5,901.2 568.5,930.8 633.1,893.4"/>
		<polygon id="XMLID_485_" fill-rule="evenodd" clip-rule="evenodd" fill="#e7c680" points="616,901.2 604.1,908 592.2,914.9 580.4,908 568.5,901.2 580.4,894.3 592.2,887.5 600.8,882.5 612.7,875.7 612.7,875.7 621.3,870.7 633.1,863.8 645,870.7 656.9,877.6 645,884.4 636.5,889.4 624.6,896.2"/>
		<polygon id="XMLID_484_" fill-rule="evenodd" clip-rule="evenodd" fill="#d3b473" points="568.5,901.2 592.2,914.9 592.2,944.5 568.5,930.8"/>
		<polygon id="XMLID_483_" fill-rule="evenodd" clip-rule="evenodd" fill="#465e89" points="656.9,877.6 592.2,914.9 592.2,944.5 656.9,907.2"/>
		<polygon id="XMLID_482_" fill-rule="evenodd" clip-rule="evenodd" fill="#ea7000" points="639.8,914.9 627.9,921.8 616,928.6 604.1,921.8 592.2,914.9 604.1,908 616,901.2 624.6,896.2 636.5,889.4 645,884.4 656.9,877.6 668.8,884.4 680.7,891.3 668.8,898.1 660.2,903.1 648.3,909.9"/>
		<polygon id="XMLID_481_" fill-rule="evenodd" clip-rule="evenodd" fill="#e46607" points="592.2,914.9 616,928.6 616,958.2 592.2,944.5"/>
		<polygon id="XMLID_480_" fill-rule="evenodd" clip-rule="evenodd" fill="#ac5219" points="680.7,891.3 616,928.6 616,958.2 680.7,920.9"/>
		<polygon id="XMLID_479_" fill-rule="evenodd" clip-rule="evenodd" fill="#6080bc" points="456.3,913.2 444.4,920.1 432.5,927 420.6,920.1 408.8,913.2 420.6,906.4 432.5,899.5 441.1,894.6 453,887.7 453,887.7 461.5,882.8 473.4,875.9 485.3,882.8 497.2,889.6 485.3,896.5 476.7,901.4 464.9,908.3"/>
		<polygon id="XMLID_478_" fill-rule="evenodd" clip-rule="evenodd" fill="#e46607" points="408.8,913.2 432.5,927 432.5,956.6 408.8,942.8"/>
		<polygon id="XMLID_477_" fill-rule="evenodd" clip-rule="evenodd" fill="#465e89" points="497.2,889.6 432.5,927 432.5,956.6 497.2,919.2"/>
		<polygon id="XMLID_476_" fill-rule="evenodd" clip-rule="evenodd" fill="#e6344c" points="480,927 468.2,933.8 456.3,940.7 444.4,933.8 432.5,927 444.4,920.1 456.3,913.2 456.3,913.2 464.9,908.3 476.7,901.4 485.3,896.5 497.2,889.6 509.1,896.5 521,903.3 509.1,910.2 500.5,915.2 488.6,922"/>
		<polygon id="XMLID_475_" fill-rule="evenodd" clip-rule="evenodd" fill="#a7aa4e" points="432.5,927 456.3,940.7 456.3,970.3 432.5,956.6"/>
		<polygon id="XMLID_474_" fill-rule="evenodd" clip-rule="evenodd" fill="#e50013" points="521,903.3 456.3,940.7 456.3,970.3 521,932.9"/>
		<polygon id="XMLID_473_" fill-rule="evenodd" clip-rule="evenodd" fill="#b2b54f" points="503.8,940.7 491.9,947.5 480,954.4 468.2,947.5 456.3,940.7 468.2,933.8 480,927 488.6,922 500.5,915.2 500.5,915.2 509.1,910.2 521,903.3 532.8,910.2 544.7,917.1 532.8,923.9 524.3,928.9 512.4,935.7"/>
		<polygon id="XMLID_472_" fill-rule="evenodd" clip-rule="evenodd" fill="#d3b473" points="456.3,940.7 480,954.4 480,984 456.3,970.3"/>
		<polygon id="XMLID_471_" fill-rule="evenodd" clip-rule="evenodd" fill="#465e89" points="544.7,917.1 480,954.4 480,984 544.7,946.7"/>
		<polygon id="XMLID_470_" fill-rule="evenodd" clip-rule="evenodd" fill="#97acdb" points="527.6,954.4 515.7,961.3 503.8,968.1 491.9,961.3 480,954.4 491.9,947.5 503.8,940.7 503.8,940.7 512.4,935.7 524.3,928.9 532.8,923.9 544.7,917.1 556.6,923.9 568.5,930.8 556.6,937.6 548,942.6 536.1,949.5"/>
		<polygon id="XMLID_469_" fill-rule="evenodd" clip-rule="evenodd" fill="#5775aa" points="480,954.4 503.8,968.1 503.8,997.7 480,984"/>
		<polygon id="XMLID_468_" fill-rule="evenodd" clip-rule="evenodd" fill="#465e89" points="568.5,930.8 503.8,968.1 503.8,997.7 568.5,960.4"/>
		<polygon id="XMLID_467_" fill-rule="evenodd" clip-rule="evenodd" fill="#e7c680" points="551.3,968.1 539.5,975 527.6,981.8 515.7,975 503.8,968.1 515.7,961.3 527.6,954.4 536.1,949.4 548,942.6 548,942.6 556.6,937.6 568.5,930.8 580.4,937.6 592.2,944.5 580.4,951.4 571.8,956.3 559.9,963.2"/>
		<polygon id="XMLID_466_" fill-rule="evenodd" clip-rule="evenodd" fill="#d3b473" points="503.8,968.1 527.6,981.8 527.6,1011.4 503.8,997.7"/>
		<polygon id="XMLID_465_" fill-rule="evenodd" clip-rule="evenodd" fill="#465e89" points="592.2,944.5 527.6,981.8 527.6,1011.4 592.2,974.1"/>
		<polygon id="XMLID_464_" fill-rule="evenodd" clip-rule="evenodd" fill="#ea7000" points="575.1,981.8 563.2,988.7 551.3,995.6 539.5,988.7 527.6,981.8 539.5,975 551.3,968.1 551.3,968.1 559.9,963.2 571.8,956.3 580.4,951.4 592.2,944.5 604.1,951.4 616,958.2 604.1,965.1 595.6,970 583.7,976.9"/>
		<polygon id="XMLID_463_" fill-rule="evenodd" clip-rule="evenodd" fill="#e46607" points="527.6,981.8 551.3,995.6 551.3,1025.2 527.6,1011.4"/>
		<polygon id="XMLID_462_" fill-rule="evenodd" clip-rule="evenodd" fill="#ac5219" points="616,958.2 551.3,995.6 551.3,1025.2 616,987.8"/>
		<polygon id="XMLID_461_" fill-rule="evenodd" clip-rule="evenodd" fill="#e7c680" points="456.3,883.6 444.4,890.5 432.5,897.4 420.6,890.5 408.8,883.6 420.6,876.8 432.5,869.9 441.1,865 453,858.1 453,858.1 461.5,853.2 473.4,846.3 485.3,853.2 497.2,860 485.3,866.9 476.7,871.8 464.9,878.7"/>
		<polygon id="XMLID_460_" fill-rule="evenodd" clip-rule="evenodd" fill="#d3b473" points="408.8,883.6 432.5,897.4 432.5,927 408.8,913.2"/>
		<polygon id="XMLID_459_" fill-rule="evenodd" clip-rule="evenodd" fill="#465e89" points="497.2,860 432.5,897.4 432.5,927 497.2,889.6"/>
		<polygon id="XMLID_458_" fill-rule="evenodd" clip-rule="evenodd" fill="#97acdb" points="480,897.4 468.2,904.2 456.3,911.1 444.4,904.2 432.5,897.4 444.4,890.5 456.3,883.6 456.3,883.6 464.9,878.7 476.7,871.8 485.3,866.9 497.2,860 509.1,866.9 521,873.7 509.1,880.6 500.5,885.5 488.6,892.4"/>
		<polygon id="XMLID_457_" fill-rule="evenodd" clip-rule="evenodd" fill="#8ba1ce" points="432.5,897.4 456.3,911.1 456.3,940.7 432.5,927"/>
		<polygon id="XMLID_456_" fill-rule="evenodd" clip-rule="evenodd" fill="#e50013" points="521,873.7 456.3,911.1 456.3,940.7 521,903.3"/>
		<polygon id="XMLID_455_" fill-rule="evenodd" clip-rule="evenodd" fill="#ea7000" points="503.8,911.1 491.9,917.9 480,924.8 468.2,917.9 456.3,911.1 468.2,904.2 480,897.4 488.6,892.4 500.5,885.5 500.5,885.5 509.1,880.6 521,873.7 532.8,880.6 544.7,887.5 532.8,894.3 524.3,899.3 512.4,906.1"/>
		<polygon id="XMLID_454_" fill-rule="evenodd" clip-rule="evenodd" fill="#e46607" points="456.3,911.1 480,924.8 480,954.4 456.3,940.7"/>
		<polygon id="XMLID_453_" fill-rule="evenodd" clip-rule="evenodd" fill="#465e89" points="544.7,887.5 480,924.8 480,954.4 544.7,917.1"/>
		<polygon id="XMLID_452_" fill-rule="evenodd" clip-rule="evenodd" fill="#97acdb" points="527.6,924.8 515.7,931.7 503.8,938.5 491.9,931.7 480,924.8 491.9,917.9 503.8,911.1 503.8,911.1 512.4,906.1 524.3,899.3 532.8,894.3 544.7,887.5 556.6,894.3 568.5,901.2 556.6,908 548,913 536.1,919.8"/>
		<polygon id="XMLID_451_" fill-rule="evenodd" clip-rule="evenodd" fill="#8ba1ce" points="480,924.8 503.8,938.5 503.8,968.1 480,954.4"/>
		<polygon id="XMLID_450_" fill-rule="evenodd" clip-rule="evenodd" fill="#465e89" points="568.5,901.2 503.8,938.5 503.8,968.1 568.5,930.8"/>
		<polygon id="XMLID_449_" fill-rule="evenodd" clip-rule="evenodd" fill="#ea7000" points="551.3,938.5 539.5,945.4 527.6,952.2 515.7,945.4 503.8,938.5 515.7,931.7 527.6,924.8 536.1,919.8 548,913 548,913 556.6,908 568.5,901.2 580.4,908 592.2,914.9 580.4,921.8 571.8,926.7 559.9,933.6"/>
		<polygon id="XMLID_448_" fill-rule="evenodd" clip-rule="evenodd" fill="#e46607" points="503.8,938.5 527.6,952.2 527.6,981.8 503.8,968.1"/>
		<polygon id="XMLID_447_" fill-rule="evenodd" clip-rule="evenodd" fill="#465e89" points="592.2,914.9 527.6,952.2 527.6,981.8 592.2,944.5"/>
		<polygon id="XMLID_446_" fill-rule="evenodd" clip-rule="evenodd" fill="#97acdb" points="575.1,952.2 563.2,959.1 551.3,966 539.5,959.1 527.6,952.2 539.5,945.4 551.3,938.5 551.3,938.5 559.9,933.6 571.8,926.7 580.4,921.8 592.2,914.9 604.1,921.8 616,928.6 604.1,935.5 595.6,940.4 583.7,947.3"/>
		<polygon id="XMLID_445_" fill-rule="evenodd" clip-rule="evenodd" fill="#8ba1ce" points="527.6,952.2 551.3,966 551.3,995.6 527.6,981.8"/>
		<polygon id="XMLID_444_" fill-rule="evenodd" clip-rule="evenodd" fill="#758dc4" points="616,928.6 551.3,966 551.3,995.6 616,958.2"/>
	</g>
</g>
</svg>
