<svg xmlns="http://www.w3.org/2000/svg" width="576" height="64" fill="none" viewBox="0 0 576 64">
    <path fill="#000" d="M28.842 35.026c0 2.07-.245 3.991-.737 5.763-.473 1.772-1.184 3.307-2.131 4.606A10.103 10.103 0 0 1 22.5 48.42c-1.386.737-2.974 1.105-4.763 1.105-1.526 0-2.869-.263-4.026-.79a9.17 9.17 0 0 1-3.027-2.21v13.421H3.368v-39.42h6.764l.263 2.789a9.289 9.289 0 0 1 3.105-2.448c1.193-.578 2.588-.868 4.184-.868 1.807 0 3.404.35 4.79 1.053a9.585 9.585 0 0 1 3.5 2.947c.947 1.263 1.658 2.79 2.131 4.579.491 1.772.737 3.737.737 5.895v.552zm-7.316-.552c0-1.193-.114-2.307-.342-3.342-.21-1.053-.552-1.957-1.026-2.71a5.073 5.073 0 0 0-1.79-1.817c-.719-.438-1.596-.658-2.631-.658-1.28 0-2.334.255-3.158.764-.807.49-1.439 1.193-1.895 2.105V40.71a5.643 5.643 0 0 0 1.895 2.157c.824.527 1.895.79 3.21.79 1.036 0 1.913-.228 2.632-.684a5.23 5.23 0 0 0 1.79-1.869c.456-.79.789-1.701 1-2.737a17.02 17.02 0 0 0 .315-3.342v-.552zM34.263 34.5c0-2.07.298-3.983.895-5.737.596-1.772 1.465-3.307 2.605-4.605 1.158-1.298 2.562-2.316 4.21-3.053C43.64 20.368 45.544 20 47.685 20c2.14 0 4.044.368 5.71 1.105 1.667.737 3.07 1.755 4.211 3.053 1.158 1.298 2.035 2.833 2.632 4.605.596 1.754.895 3.667.895 5.737v.553c0 2.087-.299 4.017-.895 5.79-.597 1.753-1.465 3.28-2.605 4.578-1.14 1.298-2.544 2.316-4.211 3.053-1.667.719-3.561 1.079-5.684 1.079-2.14 0-4.053-.36-5.737-1.08-1.667-.736-3.079-1.754-4.237-3.052-1.14-1.298-2.009-2.825-2.605-4.579-.597-1.772-.895-3.702-.895-5.79V34.5zm7.316.553c0 1.193.114 2.315.342 3.368.228 1.035.588 1.947 1.079 2.737A5.594 5.594 0 0 0 44.895 43c.79.456 1.737.684 2.842.684 1.07 0 1.991-.228 2.763-.684a5.366 5.366 0 0 0 1.868-1.842c.492-.79.851-1.702 1.08-2.737a15.89 15.89 0 0 0 .341-3.368V34.5c0-1.158-.114-2.254-.342-3.29-.228-1.035-.587-1.947-1.079-2.736a5.294 5.294 0 0 0-1.868-1.869c-.772-.456-1.71-.684-2.816-.684-1.087 0-2.017.228-2.79.684A5.513 5.513 0 0 0 43 28.474c-.491.79-.85 1.701-1.079 2.736a15.262 15.262 0 0 0-.342 3.29v.553zM76.658 43.132H93.42V49H66.658v-4.526l15.947-18H67.026v-5.948h25.737v4.395l-16.105 18.21zM105.895 20.526l.447 3.948c1.018-1.421 2.254-2.518 3.711-3.29 1.456-.79 3.07-1.184 4.842-1.184 1.438 0 2.754.21 3.947.632a7.562 7.562 0 0 1 3.079 2.026c.877.912 1.553 2.096 2.026 3.552.492 1.44.737 3.194.737 5.264V49h-7.316V31.579c0-1.123-.131-2.044-.394-2.763-.246-.737-.606-1.316-1.079-1.737a3.87 3.87 0 0 0-1.711-.869c-.666-.175-1.421-.263-2.263-.263-1.246 0-2.307.255-3.184.764a5.832 5.832 0 0 0-2.132 2.052V49h-7.342V20.526h6.632zM149.053 49a6.443 6.443 0 0 1-.448-1.21 16.11 16.11 0 0 1-.316-1.448 9.58 9.58 0 0 1-1.394 1.237c-.527.386-1.114.728-1.763 1.026-.632.281-1.334.5-2.106.658a11.27 11.27 0 0 1-2.5.263c-1.456 0-2.798-.21-4.026-.631-1.211-.421-2.254-1.009-3.132-1.763a8.065 8.065 0 0 1-2.052-2.685 7.993 7.993 0 0 1-.737-3.42c0-3 1.114-5.316 3.342-6.948 2.246-1.65 5.588-2.474 10.026-2.474h4.079v-1.684c0-1.368-.447-2.447-1.342-3.237-.895-.807-2.184-1.21-3.868-1.21-1.491 0-2.579.324-3.263.973-.685.632-1.027 1.483-1.027 2.553h-7.315c0-1.21.263-2.36.789-3.447.544-1.088 1.325-2.044 2.342-2.869 1.035-.824 2.29-1.474 3.763-1.947 1.491-.491 3.193-.737 5.106-.737 1.719 0 3.315.21 4.789.632 1.491.42 2.781 1.043 3.868 1.868a8.563 8.563 0 0 1 2.553 3.132c.614 1.245.921 2.693.921 4.342v12.21c0 1.527.097 2.79.29 3.79.193 1 .473 1.86.842 2.579V49h-7.421zm-6.974-5.132c.737 0 1.421-.087 2.053-.263a7.927 7.927 0 0 0 1.71-.684c.509-.28.947-.596 1.316-.947.368-.369.658-.737.868-1.106v-4.894h-3.737c-1.14 0-2.114.114-2.921.342-.807.21-1.464.517-1.973.92-.509.387-.886.86-1.132 1.422a4.307 4.307 0 0 0-.368 1.79c0 .982.342 1.798 1.026 2.447.702.649 1.754.973 3.158.973zM167.263 20.526h14.579v29.132c0 1.895-.272 3.517-.816 4.868-.544 1.369-1.333 2.491-2.368 3.369-1.035.894-2.298 1.552-3.79 1.973-1.491.421-3.193.632-5.105.632-.789 0-1.588-.035-2.395-.105a13.854 13.854 0 0 1-2.315-.342l.368-5.948c.211.053.5.097.868.132.386.052.772.088 1.158.105.404.035.781.053 1.132.053.368.017.64.026.816.026.701 0 1.359-.079 1.973-.237.632-.158 1.167-.42 1.606-.79.456-.368.815-.859 1.079-1.473.263-.596.394-1.35.394-2.263V26.5h-7.184v-5.974zm6.684-7.29c0-.56.097-1.078.29-1.552.21-.491.491-.903.842-1.237a3.87 3.87 0 0 1 1.316-.815 5.009 5.009 0 0 1 1.737-.29c1.298 0 2.324.369 3.079 1.105.771.72 1.157 1.65 1.157 2.79 0 1.14-.386 2.079-1.157 2.816-.755.719-1.781 1.079-3.079 1.079a5.009 5.009 0 0 1-1.737-.29 4.103 4.103 0 0 1-1.316-.79 4.052 4.052 0 0 1-.842-1.236 4.28 4.28 0 0 1-.29-1.58zM237.974 37.237l-3.316 3.079V49h-7.316V8.579h7.316v23.105l2.21-2.526 7.869-8.632h8.789l-10.737 11.869L255.026 49h-8.973l-8.079-11.763zM277.421 45c-.965 1.421-2.132 2.535-3.5 3.342-1.351.807-2.833 1.21-4.447 1.21-1.474 0-2.825-.227-4.053-.684a7.827 7.827 0 0 1-3.158-2.157c-.877-1-1.561-2.264-2.052-3.79-.474-1.544-.711-3.395-.711-5.553V20.526h7.316v16.895c0 1.158.079 2.132.237 2.921.175.79.447 1.43.815 1.921.369.474.851.816 1.448 1.026.596.211 1.324.316 2.184.316 1.456 0 2.64-.272 3.553-.816a5.465 5.465 0 0 0 2.079-2.289V20.526h7.342V49h-6.632l-.421-4zM316.921 35.053c0 2.122-.237 4.07-.71 5.842-.457 1.772-1.15 3.298-2.079 4.579a9.85 9.85 0 0 1-3.474 3c-1.386.701-3 1.052-4.842 1.052-1.667 0-3.114-.307-4.342-.92a9.55 9.55 0 0 1-3.132-2.632L298 49h-6.579V8.579h7.316v14.526a8.958 8.958 0 0 1 2.974-2.29c1.157-.543 2.508-.815 4.052-.815 1.86 0 3.483.36 4.869 1.079a9.787 9.787 0 0 1 3.5 3c.929 1.28 1.622 2.816 2.079 4.605.473 1.772.71 3.71.71 5.816v.553zm-7.316-.553a19.62 19.62 0 0 0-.263-3.29c-.175-1.035-.482-1.938-.921-2.71-.421-.79-1-1.412-1.737-1.868-.737-.457-1.658-.685-2.763-.685-1.333 0-2.421.281-3.263.843-.825.56-1.465 1.333-1.921 2.315v11.342c.456.983 1.096 1.755 1.921 2.316.842.562 1.947.842 3.316.842 1.105 0 2.017-.21 2.737-.631a4.79 4.79 0 0 0 1.71-1.79c.439-.772.746-1.675.921-2.71a20.78 20.78 0 0 0 .263-3.421V34.5zM337.079 49.526c-2.193 0-4.184-.36-5.974-1.079-1.789-.719-3.324-1.693-4.605-2.92a13.143 13.143 0 0 1-2.974-4.37c-.684-1.683-1.026-3.482-1.026-5.394v-1.052c0-2.176.342-4.158 1.026-5.948.685-1.807 1.641-3.36 2.869-4.658a12.933 12.933 0 0 1 4.368-3.026c1.684-.72 3.518-1.079 5.5-1.079 2.053 0 3.877.342 5.474 1.026 1.614.667 2.974 1.614 4.079 2.842 1.123 1.229 1.973 2.71 2.552 4.448.579 1.72.869 3.623.869 5.71v3.106h-19.316c.14.965.421 1.85.842 2.657.439.79.991 1.474 1.658 2.053a7.294 7.294 0 0 0 2.29 1.342c.859.316 1.798.474 2.815.474.72 0 1.43-.07 2.132-.21.719-.141 1.403-.343 2.053-.606a9.676 9.676 0 0 0 1.815-1.026A7.062 7.062 0 0 0 345 40.395l3.658 3.947c-.456.65-1.053 1.29-1.79 1.921-.719.614-1.579 1.167-2.579 1.658-.982.474-2.078.86-3.289 1.158-1.211.298-2.518.447-3.921.447zm-.868-23.605c-.825 0-1.579.15-2.264.447a5.304 5.304 0 0 0-1.815 1.237 7.373 7.373 0 0 0-1.29 1.948 10.63 10.63 0 0 0-.789 2.526h12V31.5a6.92 6.92 0 0 0-.448-2.184 4.995 4.995 0 0 0-1.131-1.763 5.03 5.03 0 0 0-1.816-1.185c-.702-.298-1.518-.447-2.447-.447zM375.711 20c1.105 0 2.122.079 3.052.237.948.14 1.711.298 2.29.474L379.974 28a23.363 23.363 0 0 0-2.974-.5c-1-.123-1.956-.184-2.868-.184-2.053 0-3.702.395-4.948 1.184-1.228.79-2.149 1.921-2.763 3.395V49h-7.316V20.526h6.816l.342 4.658c1.158-1.614 2.544-2.877 4.158-3.79 1.614-.93 3.377-1.394 5.29-1.394zM393.895 20.526l.447 3.948c1.018-1.421 2.254-2.518 3.711-3.29 1.456-.79 3.07-1.184 4.842-1.184 1.438 0 2.754.21 3.947.632a7.562 7.562 0 0 1 3.079 2.026c.877.912 1.553 2.096 2.026 3.552.492 1.44.737 3.194.737 5.264V49h-7.316V31.579c0-1.123-.131-2.044-.394-2.763-.246-.737-.606-1.316-1.079-1.737a3.87 3.87 0 0 0-1.711-.869c-.666-.175-1.421-.263-2.263-.263-1.246 0-2.307.255-3.184.764a5.832 5.832 0 0 0-2.132 2.052V49h-7.342V20.526h6.632zM433.079 49.526c-2.193 0-4.184-.36-5.974-1.079-1.789-.719-3.324-1.693-4.605-2.92a13.143 13.143 0 0 1-2.974-4.37c-.684-1.683-1.026-3.482-1.026-5.394v-1.052c0-2.176.342-4.158 1.026-5.948.685-1.807 1.641-3.36 2.869-4.658a12.933 12.933 0 0 1 4.368-3.026c1.684-.72 3.518-1.079 5.5-1.079 2.053 0 3.877.342 5.474 1.026 1.614.667 2.974 1.614 4.079 2.842 1.123 1.229 1.973 2.71 2.552 4.448.579 1.72.869 3.623.869 5.71v3.106h-19.316c.14.965.421 1.85.842 2.657.439.79.991 1.474 1.658 2.053a7.294 7.294 0 0 0 2.29 1.342c.859.316 1.798.474 2.815.474.72 0 1.43-.07 2.132-.21.719-.141 1.403-.343 2.053-.606a9.676 9.676 0 0 0 1.815-1.026A7.062 7.062 0 0 0 441 40.395l3.658 3.947c-.456.65-1.053 1.29-1.79 1.921-.719.614-1.579 1.167-2.579 1.658-.982.474-2.078.86-3.289 1.158-1.211.298-2.518.447-3.921.447zm-.868-23.605c-.825 0-1.579.15-2.264.447a5.304 5.304 0 0 0-1.815 1.237 7.373 7.373 0 0 0-1.29 1.948 10.63 10.63 0 0 0-.789 2.526h12V31.5a6.92 6.92 0 0 0-.448-2.184 4.995 4.995 0 0 0-1.131-1.763 5.03 5.03 0 0 0-1.816-1.185c-.702-.298-1.518-.447-2.447-.447zM464.684 13.553v6.973h10.632v5.395h-10.632v12.237c0 1.035.114 1.903.342 2.605.246.684.588 1.237 1.027 1.658.438.404.965.693 1.579.868a7.854 7.854 0 0 0 2.105.264c.561 0 1.131-.027 1.71-.08a38.274 38.274 0 0 0 1.685-.184 51.927 51.927 0 0 0 1.5-.263 17.07 17.07 0 0 0 1.21-.263l.711 5.026a9.462 9.462 0 0 1-1.79.79c-.684.21-1.412.386-2.184.526-.772.14-1.579.246-2.421.316-.825.088-1.64.132-2.447.132-1.562 0-2.983-.202-4.264-.606-1.263-.42-2.351-1.061-3.263-1.92-.895-.878-1.588-1.983-2.079-3.316-.491-1.351-.737-2.965-.737-4.843V25.921h-6.5v-5.395h6.5v-6.973h7.316zM497.079 49.526c-2.193 0-4.184-.36-5.974-1.079-1.789-.719-3.324-1.693-4.605-2.92a13.143 13.143 0 0 1-2.974-4.37c-.684-1.683-1.026-3.482-1.026-5.394v-1.052c0-2.176.342-4.158 1.026-5.948.685-1.807 1.641-3.36 2.869-4.658a12.933 12.933 0 0 1 4.368-3.026c1.684-.72 3.518-1.079 5.5-1.079 2.053 0 3.877.342 5.474 1.026 1.614.667 2.974 1.614 4.079 2.842 1.123 1.229 1.973 2.71 2.552 4.448.579 1.72.869 3.623.869 5.71v3.106h-19.316c.14.965.421 1.85.842 2.657.439.79.991 1.474 1.658 2.053a7.294 7.294 0 0 0 2.29 1.342c.859.316 1.798.474 2.815.474.72 0 1.43-.07 2.132-.21.719-.141 1.403-.343 2.053-.606a9.676 9.676 0 0 0 1.815-1.026A7.062 7.062 0 0 0 505 40.395l3.658 3.947c-.456.65-1.053 1.29-1.79 1.921-.719.614-1.579 1.167-2.579 1.658-.982.474-2.078.86-3.289 1.158-1.211.298-2.518.447-3.921.447zm-.868-23.605c-.825 0-1.579.15-2.264.447a5.304 5.304 0 0 0-1.815 1.237 7.373 7.373 0 0 0-1.29 1.948 10.63 10.63 0 0 0-.789 2.526h12V31.5a6.92 6.92 0 0 0-.448-2.184 4.995 4.995 0 0 0-1.131-1.763 5.03 5.03 0 0 0-1.816-1.185c-.702-.298-1.518-.447-2.447-.447zM533.632 41.184c0-.438-.106-.824-.316-1.158-.193-.333-.553-.64-1.079-.92-.509-.299-1.193-.57-2.053-.817-.859-.245-1.947-.49-3.263-.736a33.222 33.222 0 0 1-4.579-1.237c-1.368-.509-2.544-1.114-3.526-1.816-.983-.72-1.755-1.544-2.316-2.474-.544-.93-.816-2-.816-3.21 0-1.176.281-2.299.842-3.369.562-1.07 1.369-2.008 2.421-2.815 1.053-.807 2.334-1.448 3.842-1.922 1.509-.473 3.211-.71 5.106-.71 1.982 0 3.763.237 5.342.71 1.579.457 2.912 1.097 4 1.922 1.105.807 1.947 1.771 2.526 2.894a7.864 7.864 0 0 1 .869 3.658h-7.316c0-1.105-.448-2.026-1.342-2.763-.895-.754-2.255-1.131-4.079-1.131-1.702 0-2.991.306-3.869.92-.859.615-1.289 1.369-1.289 2.264 0 .42.088.816.263 1.184.175.35.482.675.921.974.456.28 1.07.543 1.842.79.772.227 1.755.429 2.948.604 1.719.281 3.315.64 4.789 1.08 1.474.438 2.746 1.008 3.816 1.71 1.07.684 1.903 1.526 2.5 2.526.614.983.921 2.158.921 3.526 0 1.264-.307 2.43-.921 3.5-.597 1.053-1.456 1.965-2.579 2.737-1.105.772-2.448 1.378-4.026 1.816-1.579.421-3.343.632-5.29.632-2.14 0-4.035-.281-5.684-.842-1.632-.562-3-1.29-4.105-2.185-1.106-.912-1.948-1.938-2.527-3.079-.561-1.158-.842-2.315-.842-3.473h6.974c.052.772.263 1.438.631 2 .369.544.843.99 1.421 1.342a6.774 6.774 0 0 0 1.974.737c.755.158 1.526.236 2.316.236 1.807 0 3.184-.289 4.132-.868.947-.579 1.421-1.325 1.421-2.237z"/>
    <path fill="#0db7ed" d="M544 0h32v64h-32z"/>
</svg>
